<svg width="180" height="152" viewBox="0 0 180 152" fill="none" xmlns="http://www.w3.org/2000/svg">
<path d="M176.34 93.0522C174.961 90.8972 173.16 89.0879 171.072 87.707L171.074 87.6997L153.662 74.9722C148.91 71.5003 143.338 69.1984 137.519 68.2839C135.945 66.2668 126.774 55.0358 110.943 45.3858C110.917 45.1325 110.89 44.8829 110.86 44.6285C109.65 34.119 105.996 19.5017 95.4486 9.55311C95.2928 9.40498 79.7695 -4.9879 58.8663 1.82276C58.8626 1.8217 58.8532 1.82688 58.8485 1.82947C58.6591 1.89359 58.4702 1.942 58.2797 2.00978C47.4029 5.57349 39.8682 18.8166 39.5337 19.4095L39.2741 19.8537C37.0821 20.0004 34.9927 20.9734 33.4549 22.4708C30.0143 22.8547 3.78774 26.6823 0.247893 54.2292C-0.806441 62.4463 2.5406 71.477 9.93317 80.3543C14.5305 85.8742 19.2677 89.6746 20.882 90.9066L19.4586 95.8261C17.1591 103.774 20.123 112.385 26.8266 117.258L52.3275 135.782L52.6032 135.406C53.8096 136.084 55.0871 136.64 56.429 137.028C57.1696 137.242 57.9276 137.41 58.6994 137.53L149.384 151.556C158.353 152.941 167.011 147.432 169.528 138.734L178.479 107.794C179.923 102.805 179.145 97.4313 176.34 93.0522ZM134.586 67.8475L111.056 64.4287C111.284 62.2948 111.816 55.9363 111.175 47.8668C123.444 55.5865 131.404 64.1087 134.586 67.8475ZM94.0813 10.9967C111.86 27.7704 109.612 58.8303 109.081 64.1426L92.3297 61.71C92.5989 59.0767 93.1841 51.4373 92.1117 42.1253C90.9047 31.6168 87.2471 16.9985 76.6962 7.04881C74.1274 4.62496 71.4687 2.95195 68.7397 2.01573C83.6595 1.36978 93.9559 10.8811 94.0803 11.0004L94.0813 10.9967ZM27.8747 69.8963C26.4155 68.8835 23.3417 66.5711 20.5363 63.29C15.4824 57.3844 13.7023 51.3557 15.2428 45.3721C15.3605 44.9107 15.4885 44.4681 15.6166 44.0256C19.8163 37.8323 25.8625 36.9299 28.8053 36.8934C28.8232 38.2186 29.2119 39.4845 29.9763 40.5777C30.8869 41.8797 32.2122 42.8061 33.796 43.2644C34.2397 43.3927 34.7023 43.483 35.1791 43.5377L53.1819 45.5159C56.3129 45.859 59.4477 44.4035 61.3082 42.0245L63.659 42.661C73.4832 45.3171 78.9736 46.8026 90.7096 52.1483C90.7597 56.5071 90.5096 59.8436 90.3554 61.4202L55.8247 56.4041C44.6502 54.8715 33.5608 60.2684 27.8784 69.8973L27.8747 69.8963ZM75.3325 8.49348C83.2045 15.92 87.1485 26.1422 89.0569 35.6961C82.8082 33.5631 72.0349 30.5888 65.1619 28.8698C65.2219 27.4126 64.8205 26.0122 63.9866 24.8157C62.8196 23.1502 60.9747 22.0971 58.7828 21.8593L57.5272 21.722C59.3536 18.3619 64.6795 10.3224 74.7621 7.97962C74.9514 8.14933 75.1417 8.31539 75.3289 8.49242L75.3325 8.49348ZM64.8242 30.8333C72.0818 32.6517 83.5762 35.8386 89.4712 37.9445C90.1991 42.2537 90.5361 46.3625 90.6569 49.9411C79.3684 44.8477 73.856 43.3559 64.1747 40.7411L62.366 40.2496C62.5338 39.8621 62.6817 39.4609 62.7855 39.047L64.8242 30.8333ZM61.456 3.28153C65.3459 2.69068 69.168 3.74893 72.8483 6.42306C62.0811 9.56662 56.8676 18.4949 55.3907 21.4844L41.5246 19.9578C43.0426 17.444 51.1134 4.8475 61.4523 3.28047L61.456 3.28153ZM40.5624 21.8555L58.5651 23.8338C58.9267 23.8749 59.2724 23.9433 59.6024 24.0387C60.75 24.3708 61.7033 25.031 62.3471 25.9506C63.1219 27.0627 63.362 28.4442 63.0122 29.8453L60.8468 38.5654C60.0742 41.6754 56.7318 43.9031 53.3932 43.5357L35.3905 41.5575C33.7817 41.3775 32.4371 40.6277 31.6085 39.4406C30.8336 38.3285 30.5936 36.9471 30.9434 35.546L33.1088 26.8259C33.8814 23.7159 37.2238 21.4882 40.5634 21.8519L40.5624 21.8555ZM31.6802 24.938C31.4704 25.3887 31.2987 25.8583 31.1774 26.3464L29.0502 34.9071C26.509 34.9012 21.6788 35.446 17.3828 39.0745C21.6398 29.3185 28.2104 26.027 31.6802 24.938ZM2.22803 54.485C3.7198 42.8746 9.48594 34.2885 19.3674 28.9742C20.9438 28.1262 22.5025 27.4356 23.9853 26.8697C19.9709 30.0605 15.7114 35.5269 13.3084 44.8759C11.6222 51.4317 13.5962 58.2458 19.0179 64.5829C22.919 69.1442 27.2225 71.8758 27.6636 72.1501L44.0346 83.8193C45.082 84.5663 45.547 85.8979 45.1904 87.1305L41.9532 98.3191C41.6759 99.2774 40.9789 100.011 40.0334 100.34C39.089 100.665 38.0856 100.522 37.2622 99.9347L22.6123 89.7187C22.3858 89.5541 -0.16217 73.0733 2.22698 54.4886L2.22803 54.485ZM21.3761 96.3809L22.6048 92.1344L36.1172 101.558C36.5948 101.898 37.1146 102.147 37.6573 102.304C38.6362 102.588 39.6883 102.563 40.6946 102.216C42.2571 101.677 43.4135 100.454 43.8718 98.8702L47.1089 87.6816C47.6994 85.6407 46.9307 83.4364 45.1954 82.197L29.5223 71.027C34.7779 62.0079 45.1248 56.9391 55.5452 58.3725L136.824 70.1796C142.47 71.0008 147.885 73.2136 152.488 76.5746L163.9 84.9186C163.878 84.9122 163.86 84.9069 163.836 84.9078L73.151 70.8826C64.1829 69.4968 55.5243 75.0065 53.0078 83.7043L44.0561 114.644C42.7121 119.289 43.2972 124.27 45.6499 128.471L28.0025 115.652C21.9711 111.271 19.3083 103.528 21.3761 96.3809ZM167.61 138.179C165.371 145.919 157.666 150.824 149.683 149.589L58.9983 135.564C54.4189 134.857 50.3642 132.213 47.8718 128.317C45.3794 124.421 44.6852 119.638 45.9699 115.198L54.9216 84.258C57.1609 76.5185 64.8659 71.6129 72.8484 72.8483L163.533 86.8736C164.218 86.9804 164.894 87.1285 165.554 87.3194C169.294 88.4014 172.543 90.8081 174.66 94.12C177.152 98.0161 177.847 102.799 176.562 107.239L167.61 138.179Z" fill="#5A5AB9"/>
</svg>
