<svg width="166" height="147" viewBox="0 0 166 147" fill="none" xmlns="http://www.w3.org/2000/svg">
<path d="M133.796 116.284C134.512 116.173 134.838 115.33 134.384 114.765L129.429 108.609C128.976 108.044 128.082 108.186 127.822 108.858L124.965 116.228C124.702 116.904 125.271 117.611 125.984 117.498L128.778 117.066C129.516 126.492 127.545 133.006 123.042 135.949C117.178 139.779 107.086 137.053 95.3531 128.462C86.5805 122.042 77.5206 112.903 69.0459 102.04C72.7131 102.508 76.456 102.882 80.2442 103.153C100.508 104.609 119.794 102.99 134.541 98.6009C149.644 94.1073 158.28 87.1732 158.862 79.073C159.599 68.7774 147.085 58.5445 125.308 51.5468L126.082 48.8148C126.277 48.1189 125.648 47.4712 124.948 47.6469L117.284 49.5834C116.582 49.7627 116.335 50.6319 116.84 51.1521L122.348 56.8233C122.853 57.3435 123.729 57.1221 123.93 56.4247L124.701 53.7059C145.086 60.2793 157.279 69.866 156.632 78.9167C156.13 85.9156 147.846 92.3104 133.906 96.4578C119.411 100.771 100.408 102.358 80.4063 100.922C75.8838 100.597 71.4467 100.119 67.1084 99.515C64.4736 96.0187 61.8991 92.369 59.4248 88.5742C51.9027 77.0622 45.7338 65.0324 41.5756 53.7858C41.3592 53.2063 40.7182 52.9094 40.135 53.1237C39.5555 53.3401 39.2586 53.9811 39.4729 54.5643C43.6861 65.9626 49.9367 78.1497 57.5453 89.8021C59.625 92.9822 61.7648 96.0684 63.9558 99.0505C50.346 96.9138 37.9571 93.4261 28.0866 88.867C14.8807 82.7667 7.59765 75.2579 8.09878 68.2591C8.59992 61.2602 16.8846 54.8654 30.8244 50.718C45.3192 46.4044 64.3222 44.818 84.3241 46.2543C84.9399 46.2977 85.4766 45.8324 85.5201 45.2167C85.5658 44.5972 85.0983 44.0641 84.4825 44.0207C64.2165 42.5685 44.9329 44.184 30.1852 48.5727C15.0826 53.0663 6.44641 60.0004 5.86518 68.1006C5.38083 74.8508 10.5496 81.6001 20.5744 87.4877C22.5742 88.6622 24.7685 89.8018 27.1499 90.9021C37.7529 95.7969 51.1663 99.4786 65.8738 101.609C74.8773 113.434 84.6072 123.379 94.0261 130.273C96.1886 131.856 98.2911 133.245 100.332 134.444C110.275 140.283 118.63 141.506 124.266 137.826C129.522 134.396 131.828 127.109 130.989 116.729L133.795 116.294L133.796 116.284Z" fill="#5A5AB9"/>
<path d="M36.0668 39.0911C36.6745 38.9707 37.0697 38.3825 36.9493 37.7749C34.3024 24.3783 35.9579 14.9652 41.6124 11.2713C47.4758 7.44159 57.5659 10.1708 69.3012 18.7583C81.5052 27.6905 94.2648 41.8561 105.229 58.6462C112.187 69.2997 118.036 80.4855 122.15 90.9951C122.245 91.2397 122.417 91.43 122.624 91.5516C122.908 91.7187 123.267 91.7602 123.598 91.627C124.173 91.4025 124.459 90.755 124.232 90.1748C120.067 79.5253 114.143 68.1961 107.105 57.4162C95.9959 40.4068 83.0387 26.0359 70.6223 16.949C57.9112 7.64432 47.1724 4.96158 40.3883 9.39396C33.9176 13.6227 31.9147 23.8559 34.7528 38.205C34.8695 38.8104 35.4614 39.2078 36.069 39.0874L36.0668 39.0911Z" fill="#5A5AB9"/>
<path d="M66.5501 72.5397C65.7604 72.4538 64.9608 72.1731 64.1513 71.6976C63.4268 71.2721 62.8383 70.7674 62.3842 70.1776C61.9302 69.5878 61.6472 68.9692 61.5396 68.3144C61.472 67.9217 61.4808 67.5342 61.5684 67.1481C61.6776 66.6405 61.4029 66.1262 60.9593 65.8657L60.7301 65.7311C60.0352 65.323 59.1435 65.724 58.9825 66.5144C58.8692 67.0543 58.8442 67.5964 58.9045 68.1539C59.0227 69.2225 59.43 70.2473 60.1332 71.217C60.8342 72.1905 61.792 73.0314 63.0081 73.7457C64.2242 74.4599 65.4515 74.8675 66.6824 74.964C67.9133 75.0605 69.043 74.8639 70.0751 74.3763C71.1072 73.8887 71.9228 73.1348 72.5242 72.1109C73.2254 70.9169 73.4832 69.7161 73.2917 68.5099C73.1003 67.3038 72.4677 66.2561 71.3925 65.3612L71.4793 65.2133C72.5987 65.4829 73.6567 65.4083 74.6497 64.9873C75.6427 64.5662 76.4518 63.8234 77.0749 62.7625C77.5959 61.8753 77.8567 60.9149 77.8588 59.887C77.8609 58.8592 77.584 57.8663 77.0243 56.9062C76.4646 55.9461 75.6033 55.1271 74.4389 54.4432C73.3559 53.8071 72.2362 53.428 71.089 53.316C69.938 53.2018 68.869 53.3545 67.8744 53.7696C67.3603 53.9847 66.8947 54.2781 66.4783 54.64C65.8738 55.1699 65.9564 56.1382 66.6514 56.5463L66.766 56.6136C67.2169 56.8785 67.8101 56.8589 68.1935 56.5024C68.4849 56.2262 68.8197 56.0201 69.1941 55.8821C69.8169 55.6512 70.4824 55.5847 71.1943 55.6846C71.9062 55.7845 72.5856 56.0244 73.2362 56.4065C73.9274 56.8125 74.4518 57.2994 74.8114 57.8637C75.1674 58.4257 75.3495 59.0298 75.3548 59.6642C75.3578 60.3024 75.1726 60.9394 74.7992 61.5752C74.4258 62.2109 73.9093 62.7179 73.299 63.0207C72.6887 63.3234 72.0237 63.44 71.2959 63.3755C70.5719 63.3132 69.8357 63.0598 69.0891 62.6213L68.5937 62.3304C68.0356 62.0026 67.316 62.1865 66.9861 62.7484C66.6561 63.3103 66.8422 64.0261 67.4041 64.3561L67.8994 64.647C68.8568 65.2092 69.5773 65.8362 70.0631 66.5242C70.5489 67.2123 70.8085 67.9216 70.8397 68.6558C70.873 69.3863 70.6827 70.0997 70.2767 70.791C69.8707 71.4822 69.3677 71.9325 68.7175 72.2268C68.0674 72.5211 67.3457 72.6242 66.556 72.5382L66.5501 72.5397Z" fill="#5A5AB9"/>
<path d="M89.8317 66.2079C90.826 66.7919 91.4558 67.5396 91.7326 68.4479C91.9316 69.1166 91.9813 69.8021 91.8784 70.5022C91.8078 70.9779 92.0218 71.4515 92.4358 71.6947L92.6391 71.8141C93.3341 72.2222 94.2523 71.8269 94.3868 71.0308C94.4772 70.4874 94.5001 69.949 94.456 69.4061C94.3734 68.3533 94.0436 67.3741 93.4668 66.4686C92.89 65.5631 92.0727 64.8046 91.0192 64.1859C89.9657 63.5672 88.8737 63.2341 87.7617 63.1975C86.6497 63.1609 85.5374 63.4125 84.4213 63.9501C83.3051 64.4878 82.2122 65.3075 81.144 66.4152C80.0722 67.5208 79.0485 68.9082 78.0694 70.5753C77.0903 72.2424 76.3903 73.8745 76.1033 75.2521C75.8162 76.6296 75.7923 77.8386 76.033 78.8847C76.2737 79.9309 76.7018 80.8187 77.3072 81.5571C77.9148 82.2917 78.6005 82.8933 79.3665 83.3581C80.6279 84.1139 81.896 84.4858 83.1708 84.4738C84.4455 84.4618 85.6231 84.1243 86.7131 83.4619C87.8009 82.8032 88.6849 81.8906 89.3688 80.7262C90.0526 79.5618 90.4449 78.2759 90.4567 77.02C90.4684 75.7642 90.1855 74.6037 89.6057 73.5424C89.0259 72.481 88.1953 71.6352 87.1159 71.0013C86.4727 70.6236 85.8042 70.3652 85.1081 70.2298C84.4121 70.0944 83.72 70.0708 83.0276 70.1662C82.3337 70.2558 81.6644 70.4643 81.0145 70.7836L80.8666 70.6968C82.22 68.4093 83.6878 66.8751 85.2678 66.0978C86.8479 65.3206 88.3709 65.3599 89.8273 66.2153L89.8317 66.2079ZM80.245 73.245C80.759 72.8608 81.3218 72.5798 81.9333 72.402C82.5448 72.2243 83.1692 72.1684 83.8065 72.2345C84.4438 72.3005 85.0545 72.5051 85.6348 72.8459C86.4074 73.2996 86.9842 73.892 87.3631 74.6266C87.7421 75.3612 87.9193 76.1513 87.8912 76.9949C87.8631 77.8384 87.6201 78.6502 87.162 79.4302C86.7039 80.2101 86.0886 80.843 85.3479 81.283C84.6073 81.723 83.8154 81.954 82.976 81.9781C82.1308 82.0036 81.3266 81.7899 80.5541 81.3361C79.7815 80.8824 79.1853 80.2638 78.8062 79.5042C78.4233 78.7424 78.2474 77.9332 78.2761 77.08C78.307 76.2232 78.5399 75.4204 78.9784 74.6737C79.3106 74.1081 79.7325 73.6351 80.2487 73.2472L80.245 73.245Z" fill="#5A5AB9"/>
<path d="M109.608 76.645C109.079 75.3104 108.13 74.2356 106.754 73.428C105.379 72.6204 103.984 72.3129 102.555 72.5028C101.126 72.6927 99.7324 73.3557 98.3683 74.4934C97.0041 75.6311 95.7228 77.2202 94.5288 79.2533C93.3348 81.2863 92.5602 83.1978 92.2273 84.9412C91.8944 86.6846 91.9942 88.2247 92.5213 89.5534C93.0522 90.8843 94.0099 91.9539 95.3961 92.768C96.7822 93.5821 98.1829 93.8976 99.6001 93.7108C101.021 93.5261 102.409 92.8647 103.771 91.7211C105.132 90.5812 106.418 88.9847 107.618 86.9406C108.819 84.8964 109.576 83.0145 109.905 81.269C110.234 79.5234 110.137 77.9796 109.604 76.6428L109.608 76.645ZM100.948 90.6447C99.4097 91.5209 97.9565 91.5573 96.5851 90.7519C95.6721 90.2157 95.0658 89.4619 94.7684 88.4869C94.4711 87.5118 94.4837 86.3559 94.8108 85.0118C95.1357 83.6714 95.7797 82.1853 96.7371 80.5552C98.1721 78.1118 99.6681 76.445 101.221 75.5526C102.772 74.6638 104.23 74.62 105.59 75.4189C106.496 75.9508 107.1 76.7083 107.389 77.6885C107.684 78.6673 107.665 79.8343 107.34 81.1842C107.014 82.5342 106.372 84.0261 105.414 85.6563C103.975 88.107 102.485 89.7723 100.95 90.6506L100.948 90.6447Z" fill="#5A5AB9"/>
</svg>
