<svg width="153" height="200" viewBox="0 0 153 200" fill="none" xmlns="http://www.w3.org/2000/svg">
<path d="M138.098 66.7396C135.527 53.5857 129.41 40.8105 120.877 30.7653C111.353 19.5591 99.6092 12.6489 86.9519 10.7991C77.6608 9.43588 68.6298 13.7817 62.1643 22.7187C52.4476 36.1579 50.7304 55.9647 57.8053 71.4272C56.3802 72.1159 54.3459 73.5536 52.983 76.4452L52.8872 76.7329C52.8678 76.8208 50.6289 85.9298 35.1783 101.564C19.6915 117.238 4.30418 140.483 4.84976 157.076C5.154 166.35 8.67461 173.666 14.5022 177.149C15.7233 177.878 17.2342 178.547 19.0483 178.946C22.604 179.729 27.3114 179.466 33.2185 176.534C52.5948 166.918 70.6888 131.85 78.0778 116.012C83.4707 117.606 105.627 123.146 123.325 112.738C136.679 104.879 142.21 87.6838 138.115 66.7379L138.098 66.7396ZM58.9263 34.9131L58.9469 34.9177C58.9738 34.8694 61.7596 29.3055 67.8962 27.4977C70.7588 26.6541 73.9148 26.7422 77.3148 27.7402C74.9489 30.7576 70.8548 37.7837 72.5303 48.8277C74.111 59.2438 76.8638 67.29 78.3279 71.075C68.8073 69.7209 62.8285 70.2954 60.4953 70.6541C55.3329 59.6713 54.917 46.3037 58.9303 34.9194L58.9263 34.9131ZM88.8208 67.3004C89.5296 66.985 91.6666 66.6807 94.8399 67.3795C98.0131 68.0782 99.8309 69.248 100.335 69.836C99.6266 70.1513 97.4896 70.4556 94.3164 69.7568C91.1431 69.0581 89.3253 67.8883 88.8208 67.3004ZM99.1457 72.9011C101.246 72.7134 102.846 71.971 103.178 70.4619C103.769 67.7796 99.7184 65.6252 95.4391 64.6828C91.1599 63.7405 86.5793 63.9944 85.9886 66.6767C85.6552 68.191 86.796 69.5313 88.6233 70.584L88.1067 72.9303C85.7671 72.3826 83.5742 71.9322 81.5174 71.5769C80.4852 69.0791 77.0621 60.2134 75.2726 48.4074C73.5722 37.2062 78.3405 30.6862 80.0903 28.7198C81.5586 29.3358 83.0685 30.1072 84.6138 31.0381C94.2261 36.8233 103.75 49.4818 110.085 64.9113C112.505 70.7981 114.309 76.7333 115.523 82.5874C112.769 80.9459 107.718 78.6091 98.5107 75.7849L99.1469 72.8959L99.1457 72.9011ZM59.9648 73.5555L60.519 73.45C62.6852 73.0871 71.8968 71.9564 87.5114 75.6333L86.642 79.5818C86.4781 80.326 86.9496 81.0638 87.6938 81.2277C88.438 81.3916 89.1758 80.92 89.3397 80.1758L91.1982 71.7362C92.0086 72.0176 92.8604 72.2594 93.7286 72.4506C94.5969 72.6418 95.4713 72.7802 96.325 72.8652L94.4666 81.3048C94.3027 82.049 94.7742 82.7868 95.5184 82.9507C96.2626 83.1146 97.0005 82.6431 97.1643 81.8989L97.9143 78.493C111.883 82.8045 115.587 85.8637 116.245 86.4961C116.984 91.0861 117.345 95.5982 117.312 99.9801C115.263 100.353 108.089 100.675 87.2119 94.8094C64.2643 88.3581 57.2637 79.3006 55.8082 77.0023C57.4397 74.1211 59.8689 73.5723 59.9648 73.5555ZM71.9785 122.277C68.0514 120.892 64.2214 119.214 60.5796 117.247C59.3983 116.608 58.5536 115.571 58.2741 114.404C58.0415 113.442 58.2096 112.482 58.7437 111.706C59.9732 109.912 62.4942 109.34 64.4863 110.407C67.9752 112.281 71.6547 113.855 75.4312 115.137C74.2942 117.568 73.1444 119.96 71.9888 122.279L71.9785 122.277ZM77.7662 113.023L77.7403 113.017L77.7426 113.007C73.6084 111.701 69.5866 110.008 65.7875 107.968C62.5203 106.219 58.5099 107.157 56.4601 110.141C55.4785 111.572 55.1644 113.318 55.5845 115.052C56.0485 116.981 57.3892 118.669 59.2641 119.678C62.9306 121.655 66.779 123.348 70.7211 124.764C57.7098 150.211 43.588 168.3 31.9814 174.056C25.8122 177.12 20.2569 177.37 15.9142 174.772C10.9107 171.779 7.87845 165.297 7.60762 156.979C7.2328 145.615 16.2239 124.668 37.141 103.502C48.4286 92.0833 52.9017 84.0244 54.6047 80.0807C57.7187 84.0014 66.0973 91.7475 86.4628 97.473C91.4328 98.8709 95.66 99.9264 99.2674 100.721C109.542 102.983 114.703 103.096 117.237 102.781C117.07 106.37 116.624 109.848 115.911 113.186C98.2065 119.762 77.9919 113.105 77.765 113.028L77.7662 113.023ZM121.909 110.356C120.951 110.92 119.974 111.42 118.982 111.89C124.754 79.9924 106.159 40.784 86.0328 28.6791C79.0524 24.476 72.6694 23.195 67.0681 24.8606C65.3975 25.3597 63.9541 26.0823 62.7021 26.8957C63.236 26.0217 63.8037 25.1659 64.398 24.3376C70.3208 16.1428 78.1887 12.3048 86.545 13.5326C105.558 16.3213 128.937 34.3229 135.381 67.2683C139.242 87.0139 134.205 103.12 121.904 110.355L121.909 110.356Z" fill="#5A5AB9"/>
<path d="M102.422 94.2952C106.701 95.2375 111.281 94.9836 111.872 92.3013C112.463 89.619 108.412 87.4646 104.133 86.5223C99.854 85.5799 95.2734 85.8338 94.6827 88.5161C94.0921 91.1983 98.1423 93.3528 102.422 94.2952ZM103.539 89.22C106.712 89.9188 108.53 91.0885 109.035 91.6765C108.326 91.9918 106.189 92.2961 103.016 91.5974C99.8424 90.8986 98.0246 89.7288 97.5201 89.1409C98.2289 88.8255 100.366 88.5212 103.539 89.22Z" fill="#5A5AB9"/>
<path d="M71.966 84.2398C76.2452 85.1821 80.8258 84.9282 81.4165 82.2459C82.0071 79.5636 77.9569 77.4092 73.6777 76.4668C69.3984 75.5245 64.8178 75.7784 64.2272 78.4607C63.6365 81.143 67.6868 83.2974 71.966 84.2398ZM73.0824 79.1698C76.2557 79.8686 78.0735 81.0383 78.578 81.6263C77.8692 81.9416 75.7322 82.2459 72.5589 81.5471C69.3857 80.8484 67.5679 79.6786 67.0634 79.0907C67.7722 78.7753 69.9092 78.471 73.0824 79.1698Z" fill="#5A5AB9"/>
</svg>
