<svg width="124" height="181" viewBox="0 0 124 181" fill="none" xmlns="http://www.w3.org/2000/svg">
<path d="M58.3656 61.1532C61.2656 59.7826 62.5039 56.3057 61.1333 53.4057C59.7627 50.5057 56.2859 49.2621 53.3858 50.638C50.4858 52.0086 49.2475 55.4854 50.6181 58.3854C51.613 60.4811 53.7034 61.7141 55.8837 61.7141C56.7145 61.7141 57.5612 61.5342 58.3656 61.1532ZM53.116 57.2C52.3963 55.6759 53.0472 53.8555 54.566 53.1358C54.9788 52.94 55.4233 52.8394 55.8731 52.8394C56.2171 52.8394 56.5663 52.8977 56.905 53.0194C57.6724 53.2946 58.2862 53.8502 58.6355 54.5858C58.9848 55.3214 59.0271 56.1523 58.7519 56.9196C58.4767 57.6869 57.9211 58.3008 57.1855 58.65C55.6614 59.3697 53.841 58.7188 53.1212 57.2H53.116Z" fill="#5A5AB9"/>
<path d="M78.7184 104.13C75.8184 105.5 74.58 108.977 75.9507 111.877C76.9456 113.973 79.0359 115.206 81.2162 115.206C82.047 115.206 82.8938 115.026 83.6981 114.645C86.5981 113.274 87.8365 109.797 86.4658 106.897C85.0952 103.997 81.6131 102.759 78.7184 104.13ZM84.0791 110.417C83.804 111.184 83.2483 111.798 82.5127 112.147C80.9886 112.867 79.1682 112.216 78.4485 110.697C77.7288 109.178 78.3797 107.352 79.8985 106.633C80.3113 106.437 80.7558 106.336 81.2056 106.336C81.5496 106.336 81.8989 106.395 82.2323 106.516C82.9996 106.791 83.6135 107.347 83.9627 108.083C84.312 108.818 84.3543 109.649 84.0791 110.417Z" fill="#5A5AB9"/>
<path d="M80.7716 83.6548C82.121 79.8763 81.9199 75.7962 80.2001 72.1712C78.4855 68.5462 75.4584 65.805 71.6799 64.4555C67.9015 63.106 63.8213 63.3071 60.1963 65.027C56.5713 66.7416 53.8301 69.7686 52.4806 73.5471C51.1312 77.3256 51.3323 81.4057 53.0522 85.0307C55.6188 90.4497 61.0219 93.6249 66.6526 93.6249C68.8011 93.6249 70.9867 93.1592 73.0559 92.1802C76.6809 90.4656 79.4221 87.4385 80.7716 83.6601V83.6548ZM71.8757 89.677C65.7635 92.5718 58.4447 89.9523 55.55 83.8453C54.1476 80.8871 53.9836 77.5584 55.0843 74.4732C56.185 71.388 58.4235 68.9219 61.3818 67.5195C63.0487 66.731 64.8321 66.3341 66.6208 66.3341C68.0126 66.3341 69.4044 66.5722 70.7538 67.0538C73.8391 68.1545 76.3051 70.3931 77.7075 73.3513C79.1099 76.3095 79.2739 79.6382 78.1732 82.7234C77.0725 85.8087 74.834 88.2747 71.8757 89.677Z" fill="#5A5AB9"/>
<path d="M122.314 157.425L119.567 150.625C106.486 118.233 79.2583 50.8233 78.4857 48.7276C77.5067 46.0552 77.1944 39.1545 77.4378 37.715C77.5966 36.7942 78.9513 33.6455 80.4437 30.8355C81.3222 30.9201 83.095 31.6716 84.2328 32.1532C86.2014 32.9893 88.334 33.8995 90.1492 33.8995C91.2235 33.8995 92.1866 33.582 92.9381 32.7512L96.2984 28.3006C96.4572 28.1789 96.6054 28.0413 96.7483 27.8878C98.8757 25.5487 99.4895 21.0189 96.4307 17.2351C90.3503 9.7046 63.3029 1.32204 62.1546 0.96748V0.983372C54.9257 -1.25514 43.6538 0.321904 32.1279 5.77794C20.6019 11.234 12.2406 18.955 9.39351 25.9669H9.37765C8.92254 27.0729 -1.73022 53.3105 0.243685 62.7885C1.23858 67.5513 5.10702 69.9591 8.28221 69.7845C8.49389 69.7739 8.695 69.7421 8.8908 69.6998L14.3468 69.9168H14.4103H14.4685C17.4903 69.7739 18.5698 66.0748 19.5224 62.8097C19.8716 61.619 20.4114 59.7668 20.9036 59.0365C24.0206 59.6662 27.3175 60.6135 28.1324 61.0739C29.3972 61.7936 34.541 66.4082 35.9857 68.8584C37.1341 70.8111 72.4687 135.384 89.4506 166.416L92.3083 171.639C95.3142 177.132 101.014 180.286 106.919 180.286C109.306 180.286 111.725 179.773 114.011 178.688C121.954 174.92 125.6 165.585 122.303 157.436L122.314 157.425ZM85.3229 29.6077C84.0899 29.0838 82.9415 28.597 81.8937 28.3165C82.661 27.0993 83.3755 26.1944 83.8729 25.988C84.4497 25.7551 86.7041 26.713 88.0536 27.2899C89.4877 27.8984 91.0065 28.544 92.43 28.851L90.8583 30.9307C90.1068 31.6504 87.2333 30.428 85.3176 29.613L85.3229 29.6077ZM33.3186 8.27044C48.2261 1.21094 63.5093 0.925142 66.6951 7.64596C68.1187 10.6518 66.9174 14.642 63.8322 18.7697C58.6884 15.838 49.1734 16.7588 39.5102 21.3311C29.8418 25.9087 23.0998 32.693 22.1102 38.5353C16.8076 38.2866 13.045 36.5561 11.6902 33.6984C8.50447 26.9776 18.4111 15.3299 33.3186 8.27044ZM62.054 20.9289C58.0956 25.3318 52.1475 29.7188 45.0668 33.074C38.129 36.3603 31.043 38.2548 24.9096 38.5194C26.0262 33.7672 32.3184 27.7979 40.6903 23.8342C49.0622 19.8705 57.6723 18.7856 62.054 20.9342V20.9289ZM16.8817 62.0211C16.2996 64.0162 15.4264 67.0115 14.3891 67.1385L11.7855 67.0326C12.447 65.7361 12.9127 64.1538 13.3519 62.6615C13.7647 61.2538 14.4527 58.8988 14.9977 58.6025C15.474 58.3432 16.6277 58.3697 18.0565 58.5443C17.612 59.5339 17.2574 60.7298 16.8817 62.0211ZM112.836 176.18C106.205 179.313 98.2618 176.73 94.7426 170.3L91.8849 165.077C73.5958 131.648 39.5525 69.4299 38.3777 67.4401C36.7266 64.6407 31.2547 59.6503 29.5083 58.6554C28.0636 57.8351 16.8394 54.4748 13.6853 56.1629C12.1189 57.0043 11.4574 59.264 10.6954 61.8836C10.1079 63.9051 9.2136 66.9585 8.15521 67.0062C6.12308 67.1014 3.64114 65.4662 2.95847 62.2117C1.76778 56.5016 6.01194 43.1129 9.07071 34.5875C9.11304 34.6827 9.14481 34.778 9.18715 34.8733C11.1558 39.0275 16.2149 41.3242 23.4279 41.3294H23.4649C30.3127 41.3294 38.3989 39.2814 46.2469 35.5665C63.0701 27.602 73.146 14.8166 69.1929 6.46056C69.1506 6.36531 69.0924 6.28069 69.0448 6.18543C77.5754 9.22303 90.6255 14.4197 94.2875 18.9602C96.3726 21.548 96.0603 24.5274 94.7056 26.0198C94.0017 26.8083 91.0753 25.5593 89.1384 24.7338C86.63 23.6648 84.4603 22.744 82.8198 23.4214C79.5123 24.792 74.9982 35.6035 74.723 37.2441C74.3844 39.2233 74.7813 46.6214 75.8979 49.6696C76.6864 51.8076 102.919 116.756 117.011 151.651L119.758 158.452C122.504 165.252 119.467 173.036 112.841 176.174L112.836 176.18Z" fill="#5A5AB9"/>
</svg>
