<svg width="160" height="143" viewBox="0 0 160 143" fill="none" xmlns="http://www.w3.org/2000/svg">
<path d="M65.7367 33.9644C39.1617 43.5893 14.0304 60.0349 17.9668 70.9035L37.4301 124.643C39.7853 131.145 51.7304 133.347 69.4212 130.566L69.8862 130.501C70.5437 130.408 70.9462 129.736 70.7209 129.114L60.6785 101.387C67.6649 97.395 76.1763 93.4306 85.9873 89.8773C95.7983 86.3239 104.877 83.9135 112.8 82.5091L122.844 110.241C123.069 110.863 123.808 111.121 124.371 110.776L125.048 110.361C140.233 101.219 147.891 91.9504 145.55 85.4878L126.087 31.7486C122.15 20.88 92.3094 24.3444 65.7344 33.9694L65.7367 33.9644ZM68.4024 128.679C52.5995 131.05 41.2529 129.231 39.3417 123.954L21.5815 74.9177C22.374 75.3799 23.2769 75.7814 24.288 76.1272C24.9425 76.3455 25.6432 76.543 26.3888 76.7158C30.5112 77.6858 35.9583 77.8903 42.4656 77.2845C43.9039 77.1527 45.3978 76.98 46.9337 76.7632C47.7655 76.6482 48.6069 76.5256 49.464 76.389L68.4037 128.683L68.4024 128.679ZM132.159 54.4691L143.644 86.1783C145.555 91.4552 137.997 100.12 124.348 108.417L105.408 56.1229C106.154 55.6789 106.888 55.2353 107.592 54.7899C108.917 53.9703 110.168 53.1489 111.357 52.3291C116.747 48.6261 120.796 44.9822 123.341 41.5974C123.805 40.9908 124.215 40.3868 124.578 39.8C125.133 38.887 125.569 38.0004 125.882 37.1379L132.159 54.4691ZM122.531 39.2458C122.135 39.8445 121.679 40.4607 121.166 41.0895C118.175 44.7517 113.247 48.8381 106.787 52.8998L106.78 52.9025C105.792 53.525 104.767 54.1449 103.708 54.7643C103.414 54.9123 103.219 55.1857 103.17 55.4849C103.132 55.6557 103.146 55.8413 103.209 56.017L112.119 80.6158C103.559 82.172 94.2428 84.7265 85.2991 87.9657C76.3554 91.2049 67.568 95.2072 59.9969 99.4933L51.0877 74.8944C51.0227 74.7151 50.9118 74.569 50.7773 74.4604C50.5408 74.2646 50.216 74.1794 49.9027 74.2515C48.6927 74.4538 47.5103 74.6295 46.3483 74.7813L46.341 74.7839C38.7771 75.8097 32.3717 75.828 27.7365 74.9279C26.941 74.7773 26.195 74.5921 25.5076 74.3857C22.5161 73.4864 20.5593 72.0839 19.8807 70.2103C18.4798 66.3422 22.4916 60.4807 30.885 54.1333C39.7194 47.4606 52.3397 40.9774 66.4322 35.8733C97.6328 24.5731 121.48 24.9725 124.183 32.4341C124.861 34.3078 124.256 36.638 122.535 39.2444L122.531 39.2458Z" fill="#5A5AB9"/>
<path d="M91.3805 57.1759C91.5261 56.138 91.3909 55.0445 90.984 53.921C90.5771 52.7976 89.9744 51.865 89.1962 51.1451C88.4144 50.4265 87.439 49.985 86.296 49.8236C85.158 49.6645 83.8233 49.854 82.3339 50.3935L77.0277 52.3153C76.38 52.5499 76.0439 53.2677 76.2785 53.9154L82.3593 70.705C82.5939 71.3527 83.3117 71.6888 84.0034 71.4383C84.6511 71.2037 84.9872 70.4859 84.7526 69.8382L82.7142 64.2099C82.587 63.8586 82.7677 63.4661 83.1227 63.3376L86.6064 62.0758C86.7162 62.0361 86.8161 61.9916 86.9135 61.9522L87.0536 61.8932L93.2208 67.4004C93.5636 67.7067 94.0449 67.8015 94.4767 67.6451L94.5755 67.6093C94.9927 67.4582 95.2951 67.1045 95.3775 66.669C95.4598 66.2335 95.3095 65.7953 94.9756 65.5023L89.3899 60.5834C89.6106 60.4041 89.8137 60.2105 89.9959 60.0162C90.7684 59.1776 91.2351 58.2262 91.3795 57.1846L91.3805 57.1759ZM88.0278 58.6054C87.519 59.1209 86.75 59.5691 85.7473 59.9323L82.3404 61.1662C81.9891 61.2934 81.5966 61.1127 81.468 60.7577L79.2546 54.6464C79.1274 54.2951 79.3081 53.9027 79.6631 53.7741L83.0334 52.5534C84.0508 52.185 84.9348 52.0428 85.6646 52.1262C86.3907 52.2109 87.0035 52.4857 87.4844 52.9449C87.969 53.4027 88.3529 54.0171 88.6259 54.7709C88.899 55.5247 88.9958 56.2265 88.9139 56.8689C88.8306 57.5075 88.5366 58.09 88.0278 58.6054Z" fill="#5A5AB9"/>
<path d="M71.3044 54.3882C70.8067 54.5684 70.478 55.0435 70.4829 55.5716L70.6264 72.7688L70.4654 72.8271L59.5631 59.5265C59.2288 59.1177 58.6683 58.9647 58.1743 59.1437C57.79 59.2828 57.499 59.5993 57.3934 59.9936C57.2878 60.3878 57.3824 60.8089 57.6441 61.1198L69.8861 75.6738C70.2215 76.0739 70.7756 76.2209 71.2659 76.0433L72.071 75.7517C72.5614 75.5741 72.8928 75.1064 72.8942 74.5843L72.9808 55.5651C72.9827 55.1588 72.7857 54.7748 72.4521 54.5396C72.1186 54.3044 71.6923 54.2477 71.3081 54.3868L71.3044 54.3882Z" fill="#5A5AB9"/>
<path d="M128.096 14.0491L126.388 16.6798C107.066 7.56278 72.0417 18.9811 61.6744 22.736C35.9923 32.0375 16.5988 44.8154 9.34057 57.143L6.86214 56.2316C6.25059 56.0061 5.62377 56.527 5.73633 57.1693L6.96684 64.2699C7.07941 64.9121 7.84253 65.1904 8.34152 64.7738L13.8776 60.1608C14.3766 59.7441 14.239 58.9412 13.6288 58.7193L11.2883 57.8574C18.4388 46.0324 37.3283 33.7145 62.3663 24.6462C83.174 17.11 110.397 11.6175 125.262 18.4078L123.594 20.9784C123.185 21.6106 123.741 22.4237 124.478 22.2644L130.192 21.0474C130.649 20.9482 130.943 20.5024 130.844 20.0457L129.63 14.3297C129.475 13.5913 128.504 13.4132 128.095 14.0454L128.096 14.0491Z" fill="#5A5AB9"/>
<path d="M116.374 39.3318L115.682 37.4215L115.678 37.4229L116.374 39.3318Z" fill="#5A5AB9"/>
</svg>
