<svg width="193" height="160" viewBox="0 0 193 160" fill="none" xmlns="http://www.w3.org/2000/svg">
<path d="M177.995 9.30588C174.324 5.57438 167.434 1.79696 157.424 1.08448C142.254 0.00836448 124.4 5.95377 104.346 18.7569C61.6556 46.0201 48.472 65.6953 46.5827 68.7684C45.4502 69.1039 44.3605 69.6132 43.3741 70.3107L36.6173 75.1117C34.7058 75.7931 17.7052 82.0283 5.7142 92.9975C0.881037 97.4214 -0.379682 102.401 1.62951 109.137C7.13807 137.216 17.1791 149.836 21.3291 154.026C22.7449 155.458 24.6363 156.281 26.6481 156.353L109.066 159.205L119.959 159.699C123.071 159.842 126.162 159.446 129.097 158.564C133.378 157.279 137.325 154.959 140.545 151.762C144.668 147.663 149.952 142.236 154.838 136.681L154.869 136.644C157.018 134.202 159.085 131.738 160.942 129.351C160.947 129.349 160.953 129.338 160.956 129.333L168.792 119.929C174.49 112.613 177.562 101.332 177.033 90.3291C185.293 74.7923 189.771 60.7554 191.713 53.7515C192.907 49.436 193.149 44.8604 192.412 40.523C188.475 17.4133 178.785 9.88075 178.001 9.30888L177.995 9.30588ZM105.611 20.7287C150.336 -7.83163 173.383 5.84768 177.933 12.8942C180.369 16.6654 181.143 21.421 178.308 29.5565C174.378 26.4579 161.627 19.5133 133.906 29.4675C102.766 40.6538 78.3675 68.7972 75.1679 72.6093C65.2908 72.4027 57.7208 70.4674 53.1277 68.8932C52.0183 68.5124 50.8631 68.3368 49.7125 68.3324C53.8665 62.5026 68.6403 44.3423 105.615 20.7274L105.611 20.7287ZM160.252 61.768C150.177 56.796 139.824 59.4387 114.789 65.833C109.995 67.0582 104.555 68.4495 98.5 69.9413C91.0706 71.7714 84.2753 72.5244 78.2359 72.621C84.2852 65.7134 106.74 41.7091 134.694 31.6713C163.101 21.4644 175.019 29.7885 177.43 31.8919C174.57 39.0269 169.192 48.5605 160.249 61.7736L160.252 61.768ZM91.2003 81.6294C98.3709 79.933 104.599 78.3799 110.092 77.01C137.344 70.2063 145.567 68.1566 156.805 76.7362C161.971 80.6817 165.428 87.5756 166.533 96.1517C168.027 107.723 165.116 120.179 159.114 127.898L153.092 135.129C149.449 139.27 145.577 143.349 142.139 146.85C145.888 128.781 135.034 100.078 129.944 93.8934C124.568 87.3654 116.153 86.0992 103.452 89.9138C93.1679 93.0025 81.9727 95.2823 80.805 95.5163L37.3173 96.5899C22.533 96.9519 16.2782 91.0426 14.5706 89.0124C23.9656 82.5744 34.0638 78.571 36.8183 77.5384C39.6232 80.3916 52.8468 90.6986 91.1973 81.6349L91.2003 81.6294ZM7.29236 94.7212C8.9854 93.1722 10.7916 91.7199 12.6487 90.3595C13.8241 91.831 16.8476 94.8985 22.7867 96.941L8.69484 97.2911C6.95553 97.3328 5.30063 97.9512 3.96625 99.0145C4.75901 97.2832 5.97212 95.925 7.29236 94.7212ZM22.9909 152.388C18.8683 148.228 8.70386 135.383 3.43827 106.107C3.15633 104.531 3.57627 102.911 4.59356 101.663C5.3006 100.798 6.24375 100.174 7.29359 99.8583C7.76066 99.7181 8.2513 99.6407 8.75137 99.6258L37.3725 98.9203C37.3725 98.9203 37.3768 98.919 37.3811 98.9178L80.9567 97.8412L101.013 97.347C106.568 97.2091 111.605 100.605 113.547 105.794C117.655 116.767 124.432 137.353 123.626 151.953C123.463 154.941 120.893 157.286 117.905 157.185L26.7257 154.029C25.3091 153.979 23.9807 153.398 22.9823 152.391L22.9909 152.388ZM123.579 157.272C124.955 155.94 125.858 154.11 125.971 152.075C126.799 137.053 119.917 116.115 115.747 104.97C113.456 98.8499 107.517 94.8476 100.969 95.0084L92.7526 95.213C96.2946 94.3452 100.274 93.2994 104.13 92.1411C115.974 88.584 123.379 89.5798 128.144 95.3672C133.286 101.615 145.159 133.946 138.721 150.275C134.615 154.275 129.246 156.728 123.584 157.271L123.579 157.272ZM166.971 118.469L166.357 119.209C168.906 112.097 169.877 103.77 168.853 95.8515C167.664 86.6521 163.891 79.2044 158.225 74.8821C146.096 65.6228 136.882 67.9189 109.53 74.7478C104.04 76.1165 97.8182 77.6726 90.6647 79.3638C55.4719 87.6797 42.2264 79.1665 38.9625 76.3251L44.7341 72.226C46.9559 70.6488 49.8064 70.2313 52.3641 71.1103C60.3527 73.8485 77.0378 77.6377 99.0609 72.2133C105.124 70.7189 110.569 69.3263 115.369 68.1041C144.324 60.7048 153.068 58.4753 164.657 67.3227C169.823 71.2682 173.281 78.1621 174.386 86.7425C175.88 98.3278 172.963 110.795 166.975 118.482L166.971 118.469ZM190.104 40.9128C190.784 44.9176 190.562 49.1417 189.457 53.1317C187.677 59.5551 183.732 71.9761 176.637 86.0103C175.39 77.0058 171.654 69.7148 166.071 65.4515C164.788 64.4745 163.542 63.626 162.307 62.8866C172.61 47.6508 178.601 36.6918 181.109 28.4914C182.306 24.5762 182.716 21.2287 182.333 18.2267C185.122 22.8625 188.259 30.1047 190.097 40.9055L190.104 40.9128Z" fill="#5A5AB9"/>
</svg>
