<?xml version="1.0" encoding="UTF-8"?>
<svg id="Layer_1" data-name="Layer 1" xmlns="http://www.w3.org/2000/svg" viewBox="0 0 1080 1080">
  <defs>
    <style>
      .cls-1 {
        fill: #fff;
        stroke-width: 0px;
      }
    </style>
  </defs>
  <g>
    <polygon class="cls-1" points="605.51 714.3 603.61 714.3 597.32 730.83 591.57 744.58 617.6 744.58 611.95 730.83 605.51 714.3"/>
    <path class="cls-1" d="M264.73,716.06c-1.66-1.27-4.49-1.9-8.48-1.9h-29.4v19.45h29.4c4,0,6.82-.59,8.48-1.76,1.66-1.17,2.49-3.85,2.49-8.04,0-3.9-.83-6.48-2.49-7.75Z"/>
    <path class="cls-1" d="M1066.54,673.92h-416.91s1.14,11.77-8.06,17.62c-5.78,3.67-14.89,2.47-33.3,2.47-32.8,0-38.14-2.63-40.19-8.57-.93-2.7-3.62-7.66-3.62-7.66h-17.62l-6.83,13.76-25.33,3.47h-39.85l-19.17-21.09H13.46c-9.56,0-16.06,9.69-12.45,18.53l41.75,102.14c2.07,5.06,6.99,8.36,12.45,8.36h969.59c5.46,0,10.38-3.3,12.45-8.36l41.75-102.14c3.62-8.85-2.89-18.53-12.45-18.53ZM96.24,787.43h-39.49l-39.34-98h33.2l25.3,70.2h1.9l24.72-70.2h33.05l-39.34,98ZM178.29,787.43h-27.5v-98h27.5v98ZM266.92,787.43l-11.7-23.99c-1.17-2.44-2.39-4.34-3.66-5.71-1.27-1.36-2.93-2.31-4.97-2.85-2.05-.53-4.88-.8-8.48-.8h-11.26v33.35h-27.5v-98h57.19c8.68,0,15.94,1.17,21.79,3.51,5.85,2.34,10.26,5.73,13.24,10.16,2.97,4.44,4.46,9.87,4.46,16.31,0,5.17-.9,9.63-2.71,13.38-1.81,3.76-4.66,6.78-8.56,9.07-3.9,2.29-8.97,3.83-15.21,4.61v1.46c5.07,1.27,8.7,3.14,10.9,5.63,2.19,2.49,4.22,5.58,6.07,9.29l12.14,24.57h-31.74ZM409.82,714.15h-34.52v73.28h-27.5v-73.28h-34.66v-24.72h96.68v24.72ZM528.14,746.33c0,8.68-1.81,16.21-5.41,22.6-3.61,6.39-9.09,11.31-16.45,14.77-7.36,3.46-16.75,5.19-28.15,5.19s-20.79-1.73-28.16-5.19c-7.36-3.46-12.85-8.38-16.45-14.77-3.61-6.39-5.41-13.92-5.41-22.6v-56.9h27.5v54.7c0,4.68.58,8.34,1.76,10.97,1.17,2.63,3.39,4.49,6.65,5.56,3.26,1.07,7.97,1.61,14.11,1.61s10.97-.53,14.19-1.61c3.22-1.07,5.41-2.93,6.58-5.56s1.75-6.29,1.75-10.97v-45.99h27.5v48.19ZM635.21,787.43l-7.45-18.14h-46.53l-7.59,18.14h-30.86l38.63-89.55,46.76.26,38.65,89.29h-31.59ZM766.11,787.43h-84.1v-98h27.5v73.28h56.6v24.72ZM813.2,787.43h-27.5v-98h27.5v98ZM928.75,714.15h-34.52v73.28h-27.5v-73.28h-34.66v-24.72h96.68v24.72ZM1012.55,756.35v31.08h-27.5v-31.08l-44.02-66.91h34.08l14.77,23.26,8.34,13.75h1.9l8.34-13.75,14.77-23.26h34.23l-44.9,66.92Z"/>
  </g>
  <g>
    <path class="cls-1" d="M459.44,304c-2.96,8.79-5.26,20.28-6.69,33.49-1.13,10.46-1.53,22.77-1.67,30.92h9.77c17.83-11.37,38.64-19.19,46.85-22.06-18.94-22.88-36.23-35.53-48.27-42.34Z"/>
    <path class="cls-1" d="M486.39,438.83c.25-.25.63-.3.93-.13,0,0,0,0,.01,0,.35.19.5.62.35,1-.44,1.04-.93,2.04-1.18,3.14-.62,2.78-1.97,5.44-2.46,8.24-.04.24.05.51.2.79.51.92,1.8,1.07,2.53.31.32-.34.55-.67.54-.99-.1-3.21.72-5.99,2.81-8.39,2.09-2.4,3.82-3.09,6.62-1.66,4.35,2.22,8.25,1.73,12.36-.58,3.91-2.19,8.24-3.04,12.59-1.66,6.72,2.14,8.78,3.04,18.03.08,4.34,3.37,8.43,6.66,12.64,9.77,1.4,1.03,2.93,1.87,4.56,2.46,2.07.74,3.18.67,3.94-.57.73-1.18.03-2.72-1.3-3.1-.37-.11-.74-.21-1.1-.33-3.36-1.08-5.68-3.26-6.77-6.64-1.52-4.74,1.81-9.19,6.8-9.04,2.5.07,5,.52,7.49.48,1.32-.02,2.63-.3,4.24-.62.99-.2,1.5-1.34.95-2.19-.74-1.14-1.69-1.63-2.39-2.36-2.9-3.06-5.57-6.34-8.48-9.39-.83-.87-1.6-1.64-2.14-2.33-.39-.5-.55-1.13-.55-1.76,0-.48-.09-.98-.28-1.46-.77-1.98-2.89-3.01-4.74-2.29-1.85.72-2.73,2.91-1.96,4.89.02.04.04.08.06.12-3.48-.11-6.82.39-9.76,1.4-4.42,1.52-7.45,1.99-11.19,1.26-5.23-1.01-7.07-5.51-18.61-5.66-7.98-.1-13.5,5.34-18.25,9.71-2.16,1.99-4.77,2.57-7.53,3.01-12.25,1.96-17.11,6.15-28.59,11.03-3,1.27-10.39,3.09-16.51,2.56-6.91-.6-14.82-1.15-20.85-2.84.05.03,4.43,2.02,5.68,2.32,5.89,1.41,23.14,4.78,33.54.17,9.92-4.4,19.29-8.86,30.48-9.52.33.72.64,1.41.96,2.11.47,1.04.08,2.27-.92,2.82-1.8,1-3.42,1.77-4.28,3.04-2.59,3.86-4.7,8.04-6.94,12.14-.47.87-.05,1.96.89,2.27,1.37.44,1.98-.15,2.76-2,1.07-2.54,2.02-5.14,3.19-7.63.35-.74,1.02-1.32,1.63-1.93Z"/>
    <path class="cls-1" d="M498.45,478.29c.31-.37.61-.76.93-1.15,2.63-3.32,6.24-7.86,14.21-7.86s11.58,4.54,14.21,7.86c.31.39.62.78.93,1.15,3.66,4.4,9.66,8.83,14.83,8.83h37.67c23.24,0,42.14-18.9,42.14-42.14v-27.09c0-21.71-16.51-39.64-37.63-41.9-4.6-.22-9.04-.24-13.73-.24h-138c-23.24,0-42.14,18.91-42.14,42.14v27.09c0,23.24,18.9,42.14,42.14,42.14h49.63c5.16,0,11.17-4.44,14.83-8.83ZM395.52,444.98v-27.09c0-21.21,17.26-38.47,38.47-38.47h147.22c21.21,0,38.47,17.26,38.47,38.47v27.09c0,21.21-17.26,38.47-38.47,38.47h-37.67c-3.95,0-8.99-3.89-12-7.51-.26-.31-.52-.64-.78-.97l-.09-.11c-2.75-3.46-7.34-9.25-17.09-9.25s-14.34,5.79-17.09,9.25l-.09.11c-.26.33-.52.66-.78.97-3.01,3.62-8.05,7.51-12,7.51h-49.63c-21.21,0-38.47-17.26-38.47-38.47Z"/>
    <path class="cls-1" d="M447.64,336.93c1.64-15.08,4.4-28.06,7.99-37.55.26-.69.81-1.23,1.5-1.49.69-.26,1.46-.21,2.11.14,12.96,6.89,32.98,20.8,54.81,47.95.53.66.7,1.54.46,2.35-.24.81-.87,1.45-1.68,1.71-.25.08-21.86,7.04-41.96,18.36h99.84c.54,0,1.08,0,1.61,0h8.9c1.76,0,3.5.1,5.21.28,12.16.63,25.86,2.67,47.13,9.37,10.39,3.27,18.81,7.1,25.48,11.58h0s14.76,8.88,14.76,8.88c0,0,0,0,0,0,2.34-15.8,2.49-28.25,2.49-28.39.01-.65,1.21-59.34-16.13-86.12-8.04,2.88-35.51,14.83-66.55,52.08-.27.32-.72.88-1.24,1.52-1.44,1.78-3.3,3.13-5.38,3.98-.09.19-.16.39-.25.58-2.42,5.3-5.4,10.33-8.4,15.3-1.16,1.89-2.34,3.75-3.53,5.6-.47.73-1.44.94-2.17.47-.59-.39-.84-1.1-.66-1.75,1.81-6.49,3.6-13.06,4.71-19.7-.47-.05-.94-.12-1.42-.17-4.33-.48-8.71-.8-13.09-.98-1.22,1.64-3.5,3.68-6.04,9.69-1.17,2.77-2.06,5.75-2.71,8.72-.21,1.01-.37,2.03-.57,3.07-.12.89-.95,1.52-1.84,1.35-.69-.13-1.18-.69-1.26-1.35-.13-1.09-.28-2.19-.39-3.29-.53-6.14-.18-12.42,1.62-18.37,0,0,0,0,0,0-.17,0-.36,0-.53,0-5.59.06-10.46.28-15.16.68-.32.34-.57.76-.84,1.18-2.78,4.78-2.94,10.83-2.34,16.27l.47,3.02c.2.87-.39,1.76-1.29,1.89-.68.1-1.34-.26-1.64-.85l-1.45-2.93c-1.35-3.05-2.51-6.34-3.09-9.65-.52-3-.72-6.26-.26-9.39-2.08-.83-3.95-2.18-5.43-3.99-.94-1.15-1.87-2.28-2.45-2.95-30.44-35.79-56.93-47.24-64.81-50.03-14.98,23.2-16.16,71.32-16.19,84.42h0s9.93,0,9.93,0c.14-8.25.54-20.78,1.7-31.47ZM598.31,345.98c21.84-27.17,41.87-41.08,54.83-47.97.65-.35,1.42-.4,2.11-.14.69.26,1.23.8,1.5,1.49,2.81,7.35,6.48,19.71,7.96,36.8,2.1,24.3,2.02,28.03,1.66,43.72l-.02.97c-.02,1-.62,1.89-1.53,2.29-.33.15-.69.22-1.04.22-.61,0-1.21-.22-1.69-.63-26.06-22.7-62.08-32.56-62.44-32.66-.84-.23-1.51-.86-1.78-1.68-.27-.83-.1-1.73.44-2.41Z"/>
    <path class="cls-1" d="M416.27,621.54c-1.57-.34-3.11-.7-4.62-1.09-7.09-1.88-15.23-4.49-21.91-9.62-13.93-10.68-13.16-24.18-12.59-28.07.59-4.01,1.86-7.95,3.89-12.03l.57-1.1.3-.55c1.95-3.54,2.77-7.66,2.34-11.6-.86-9.73-9.57-17.63-19.41-17.63-.69,0-1.39.04-2.08.12-7.89.83-13.74,5.57-17.41,14.11-7.95,16.37-9.99,34.05-5.73,49.82,2.45,8.26,6.63,16.38,12.42,24.11,6.94,9.43,15.95,16.77,26.78,21.82,9.47,4.52,20.13,8.02,32.23,10.58,1.17.25,2.31-.52,2.53-1.69l3.25-16.88c.14-.76.28-1.53.41-2.29.8-4.15,1.67-8.29,2.61-12.41.58-2.53-1.04-5.04-3.58-5.59Z"/>
    <path class="cls-1" d="M608.57,486.19h30.64c16.24,0,29.45-15.95,29.45-32.19v-26.3c0-18.97-11.49-33.27-38.41-41.74-5.72-1.8-10.83-3.24-15.48-4.4,9.79,9.05,15.93,21.98,15.93,36.33v27.09c0,17.18-8.8,32.33-22.13,41.21Z"/>
    <path class="cls-1" d="M659.59,336.6c-1.26-14.5-4.12-25.42-6.63-32.63-12.02,6.8-29.29,19.41-48.21,42.25,9.52,2.99,35.09,12.06,56.58,29.19.25-12.06.13-17.2-1.74-38.8Z"/>
    <path class="cls-1" d="M519.12,551.01c25.47,2.6,51.44,2.44,76.82-.83,23.8-3.33,49.36-10.45,65.04-29.84.61-.77,1.19-1.55,1.77-2.35-7.52.22-15.3.46-22.75.05-9.36-.42-18.67-1.5-27.89-3.08-.91-.16-.81-1.55.16-1.52,9.22.25,18.44,0,27.59-.9,4.8-.43,9.51-1.11,14.21-1.89,3.06-.5,9.21-2.43,13.08-4.28.83-.4.43-1.65-.48-1.48-9.91,1.78-19.87,2.32-29.92,2.45-12.47.13-24.85-.6-37.23-1.74-.92-.08-.93-1.5.05-1.53,18.31-.68,36.79-2.14,54.66-6.16,2.68-.62,6.74-1.63,9.78-2.41.61-.16.5-1.05-.13-1.05h-120.31c-8.05,0-15.85-5.93-20.47-11.48-.34-.41-.69-.84-1.03-1.28-2.25-2.84-4.04-5.08-8.46-5.08s-6.21,2.24-8.46,5.08c-.35.44-.69.87-1.03,1.28-4.62,5.55-12.42,11.48-20.47,11.48h-35.25c3.79.96,7.61,1.84,11.4,2.65,3.81.81,7.63,1.55,11.48,2.18,3.84.63,7.71,1.17,11.59,1.48,1,.08,1.03,1.58,0,1.67-3.95.33-7.92.45-11.88.46-9.31-.02-18.55-.47-27.8-1.37-.78-.08-1.1.97-.41,1.33,2.99,1.55,6.57,3.07,10.12,3.69,9.88,1.73,19.95,2.62,29.92,2.83,1.08.01,1.2,1.64.1,1.78-11.38,1.32-22.87,1.39-34.32.81-1.76-.1-3.51-.22-5.28-.37,16.4,26.77,45.39,35.93,75.82,39.41ZM460.13,520.57c.34-.43.95-.52,1.4-.21,4.25,2.99,9.07,5.14,14.11,5.95,13.27,2.22,25.44-5.22,33.6-15.32.73-.9.66-2.21-.16-3.02l-2.37-1.91c-1.79-1.45-3.38-3.14-4.7-5.02l-.32-.45c-1.82-3.1-.68-6.12,2.85-6.89,0,0,3.37-.73,9.35-.73s9.14.73,9.14.73c3.66.77,5.1,3.61,2.85,6.89l-.32.45c-1.38,1.95-3.04,3.69-4.92,5.16l-1.7,1.33c-.86.86-.88,2.26-.05,3.15,11.31,12.04,27.7,19.75,44.37,17.19,6.26-.9,12.32-3.17,17.79-6.47.46-.27,1.06-.25,1.44.12.56.55.44,1.42-.16,1.81-11.21,7.5-25.58,10.2-38.75,6.91-10.56-2.5-20.07-8.29-27.8-15.85-.91-.89-2.38-.84-3.24.1-13.66,15.09-34.37,21.52-52.23,7.51-.44-.35-.52-.99-.18-1.43Z"/>
    <path class="cls-1" d="M689.73,458.69v-36.76c0-3.42-1.82-6.66-4.87-8.22-.09-.05-.18-.09-.26-.14l-9.05-5.44c2.74,5.84,4.13,12.39,4.13,19.58v26.3c0,13.11-6.27,24.78-15.97,32.18,14.5-.79,26.02-12.79,26.02-27.49Z"/>
    <path class="cls-1" d="M752.36,512.01s-4.42-1.84-4.42-1.84c-3.85-1.57-7.72-3.02-11.59-4.36,1.02-.89,1.8-2.08,2.21-3.46,1.1-3.73-.93-7.67-4.64-8.97l-3.34-1.13c-12.16-4.01-24.21-6.31-35.9-6.84,5.84-7.28,9-16.23,9-25.81v-37.66c0-8.51-4.63-16.34-12.09-20.43l-3.79-2.28c2.22-15.54,2.42-27.49,2.44-28.82.07-2.73,1.44-67.29-20.33-96.84-1.93-2.62-5.02-4.19-8.26-4.19-.85,0-1.7.11-2.53.32-1.01.25-10.29,2.72-24.28,11.2-17.97,10.88-35.44,26.44-51.92,46.22-.27.32-.71.86-1.24,1.51-1.47-.19-3.01-.38-4.72-.57-4.94-.54-9.97-.91-14.97-1.1-.21-.05-.43-.07-.64-.07h-.85c-1.7-.06-3.44-.09-5.31-.1h-.64c-.31,0-.63,0-.94,0-7.42,0-13.6.24-19.45.75-1.39.12-2.77.26-4.09.4-.95-1.16-1.86-2.27-2.44-2.95-16.25-19.11-33.45-34.13-51.11-44.65-13.5-8.04-22.33-10.4-23.29-10.64-.83-.21-1.69-.32-2.54-.32-3.24,0-6.32,1.56-8.25,4.18-17.15,23.28-20,68.65-20.36,89.52-25.75,5.53-44.19,28.21-44.19,54.82v27.09c0,20.76,11.52,39.61,29.42,49.32-2.41.64-4.92,1.38-7.57,2.21-1.02.34-2.04.69-3.05,1.04l-1.58.55c-3.52,1.23-5.55,4.88-4.72,8.49.07.33.17.65.29.97-4.47,1.67-8.86,3.57-13.11,5.67-3.42,1.66-5,5.71-3.61,9.22.72,1.84,2.17,3.32,4,4.08.89.37,1.83.55,2.79.55s1.91-.19,2.78-.55c3.75-1.53,7.58-2.88,11.43-4.03-1.2,1.96-1.41,4.44-.39,6.73,1.17,2.64,3.79,4.34,6.67,4.34.88,0,1.75-.16,2.58-.47l2.56-.99c.99-.38,1.68-.64,2.17-.85.04-.01.08-.03.12-.04,5.83-2.07,10.57-3.5,14.49-4.37,5.69-1.31,10.3-1.92,14.5-1.93,1.39,1.69,2.83,3.32,4.32,4.89-4.91,7.62-5.97,17.07-2.8,25.5-8.59,15.64-15.5,32.7-21.06,52.04-6.66-1.46-14.98-3.88-20.37-8.39-2.87-2.71-5.17-6.1-6.5-9.6-.7-3.56.67-9.22,3.39-13.92l.07-.13c7.49-13.84,3.69-32.32-8.59-42.04-5.88-4.9-13.46-7.59-21.34-7.59-10.39,0-19.95,4.47-26.2,12.22-2.73,3.26-4.48,6.83-6.04,10-9.45,19.44-11.8,40.67-6.61,59.82l.03.12c3.93,13.17,11.31,25.81,21.33,36.56,11.39,12.3,27.99,21.56,48,26.78,22.95,5.98,50.95,7.64,64.28,8.09,1.56,10.61,10.87,18.87,21.81,18.87h46.01c9.4,0,17.82-6.16,20.85-14.96,2.57.02,5,.02,7.35.02,2.62,0,5.36,0,8.27-.03,3.02,8.8,11.44,14.96,20.87,14.96h46.01c11.06,0,20.16-7.99,21.79-18.63,8.1-.42,21.76-1.19,25.34-1.6,4.2-.48,7.17-1.19,10.25-2.43,9.95-3.71,16.4-15.19,15.01-26.68-1.16-10.99-2.49-20.61-4.08-29.43-4.94-26.39-11.58-48.81-20.26-68.5,4.69-8.59,4.6-19.29-.32-27.72-.22-.41-.46-.81-.72-1.2.37,0,.75-.01,1.14-.01,1.24,0,2.57.03,4.04.1,6.31.37,12.88,1.5,19.56,3.37,5.61,1.5,11.7,3.74,19.23,7.07l.15.06c.89.36,1.83.55,2.78.55,2.84,0,5.35-1.62,6.56-4.22,1.54-3.32.37-7.23-2.68-9.21,4.87,1.3,9.59,2.76,14.13,4.37.26.09,4.54,1.6,4.54,1.6.75.25,1.53.38,2.32.38h0c3,0,5.73-1.89,6.8-4.7,1.39-3.67-.34-7.76-3.94-9.3ZM749.27,519.35s-4.38-1.55-4.4-1.56c-10.17-3.6-20.67-6.31-31.27-8.27-11.99-2.16-24.33-3.49-36.48-3.17-.29.01-.55-.03-.8-.08-.7,1.45-1.42,2.88-2.17,4.25,15.14-.22,30.96,5.03,44.31,11.36,2.17,1.08,4.3,2.21,6.45,3.31.74.39.24,1.56-.57,1.23-6.52-2.89-13.26-5.55-20.15-7.39-6.77-1.9-13.89-3.18-20.88-3.59-4.04-.19-8.16-.2-12.15.43-.23.27-.46.52-.7.74-.84,1.26-1.71,2.49-2.61,3.68,1.64,1.84,3.74,4.01,4.85,6.1,4.48,7.57,3.71,17.18-1.41,23.93,10.26,22.31,16.75,46.19,21.26,70.26,1.72,9.53,2.99,19.28,4.01,28.91.99,8.16-3.39,17.11-10.82,19.83-2.69,1.1-5.27,1.64-8.63,2.03-3.88.45-23.17,1.52-30.94,1.86v2.89c0,8.51-6.93,15.44-15.44,15.44h-46.01c-8.37,0-15.21-6.7-15.43-15.01h0c-4.56.05-9.13.07-13.7.07-4.27,0-8.54-.03-12.78-.07-.24,8.31-7.06,15-15.42,15h-46.01c-8.37,0-15.21-6.7-15.43-15.01-.01-.14-.01-.29-.01-.43v-3.27c-10.64-.15-43.18-1.31-68.98-8.04-19.88-5.18-34.81-14.07-44.82-24.87-9.35-10.02-16.21-21.77-19.85-33.96-4.76-17.57-2.56-37.15,6.19-55.15,1.45-2.95,2.95-6,5.16-8.65,5.04-6.26,12.75-9.86,21.13-9.86,6.35,0,12.44,2.16,17.15,6.09,9.92,7.82,12.99,22.66,6.97,33.78-3.71,6.38-5.27,13.86-4,19.07,1.68,4.64,4.68,9.13,8.46,12.66,7.29,6.19,18.27,9.11,29.5,11.12,5.51-20.65,13.09-40.73,23.72-59.39-4.56-8.44-3.02-19.3,4.34-26.33-3.61-3.29-6.91-6.91-9.94-10.86-.49-.05-1.01-.08-1.32-.1-6.06-.24-12.04.7-17.96,2.06-4.97,1.1-10.38,2.86-15.22,4.58,0,0-4.99,1.92-4.99,1.92-.78.3-1.32-.85-.55-1.24,6.26-3.18,13.17-6.32,19.85-8.5,5.35-1.72,10.93-3.28,16.59-3.78-.64-.96-1.26-1.93-1.87-2.92-11.21-.25-23.77,1.16-34.65,3.62-6.76,1.58-13.37,3.69-19.81,6.32-.35.15-.77-.02-.91-.37-.13-.33.02-.71.34-.86,6.32-3.12,12.89-5.75,19.63-7.85,10.16-3.07,21.63-5.22,32.45-5.99-.57-1.06-1.12-2.13-1.66-3.22-9.54-.71-19.22.58-28.57,2.47,0,0-4.62,1.06-4.62,1.06-.37.1-.75-.13-.84-.51-.08-.34.12-.68.44-.8,1.51-.52,3.01-1.05,4.53-1.56,8.65-2.72,17.61-4.93,26.7-5.5-.52-1.1-1.03-2.21-1.53-3.32-23.98-3.41-42.49-24.07-42.49-48.98v-27.09c0-25.48,19.36-46.52,44.14-49.19h0c-.03-13.78,1.08-66.75,19.12-91.22.88-1.2,2.4-1.75,3.85-1.38,1.34.34,33.24,8.78,70.99,53.16.6.71,1.56,1.87,2.53,3.06.66.81,1.49,1.42,2.42,1.79.92.37,1.93.52,2.96.41,1.41-.15,2.81-.29,4.24-.42,5.75-.5,11.74-.72,18.87-.72.34,0,.68,0,1.02,0,.17,0,.35,0,.52,0,0,0,0,0,0,0,1.74,0,3.48.04,5.23.1h0s.02.01.03.02c5.29.16,10.57.53,15.81,1.11,1.61.18,3.21.37,4.8.58,1.98.26,3.9-.41,5.25-1.82.12-.12.24-.26.35-.4.55-.68,1.03-1.27,1.31-1.61,38.5-46.21,71.38-54.93,72.76-55.27,1.45-.37,2.97.18,3.86,1.38,20.39,27.66,19.12,90.11,19.05,92.76,0,.57-.17,14.66-3.03,32.36,0,0,0,0,0,0l7.7,4.63c5.41,2.92,8.77,8.55,8.77,14.7v37.66c0,11.26-5.37,21.29-13.68,27.67-.47,1.67-.96,3.3-1.48,4.89,15.73-1.1,31.67,1.44,46.6,6.37,0,0,3.29,1.11,3.29,1.11.79.28.47,1.51-.39,1.3-2.03-.5-4.69-1.27-6.69-1.69-6.67-1.52-13.48-2.48-20.29-2.91-8.14-.47-16.33-.23-24.36,1.12-.46,1.23-.93,2.43-1.42,3.61,22.96,1.03,45.57,6.59,66.8,15.23,0,0,4.31,1.79,4.31,1.79.77.33.36,1.55-.49,1.27Z"/>
    <path class="cls-1" d="M663.15,525.85c-11.37,12.15-26.75,19.82-47.48,24.62-19.02,4.33-38.66,5.53-58.08,5.71-25.93.1-52.4-1.09-77.12-9.63-9.01-3.11-16.93-7.29-23.87-12.53-.45.45-.97.93-1.38,1.36-5.76,5.46-6.42,14.87-1.54,21.16,1.23,1.57,3.45,3.89,4.79,5.43,2.47,2.77,7.41,8.41,9.83,11.23,1.61,1.9,3.23,3.79,4.81,5.72.46.55-.3,1.37-.88.88-6.08-5.03-12.68-10.83-18.72-16.24-5.23,10.11-9.67,20.69-13.56,31.48-5.39,15.13-9.65,30.69-12.95,46.41-.55,2.73-1.09,5.47-1.54,8.21-.61,3.15-.07,6.49,1.71,9.25,1.91,2.93,5.17,4.8,8.69,5.01l1.21.13c1.62.18,10.36,1.14,12.15,1.34,5.59.56,11.18,1.13,16.78,1.61.42-6.88,3.27-12.66,8.38-17.05,2-1.73,4.33-3.23,7.01-4.52,1.07-.51,2.16-.98,3.25-1.38,8.41-3.17,16.93-3.44,19.58-3.44,5.76,0,13.12.96,19.87,3.55-.04-.09-.07-.18-.09-.28-2.77-8.56-3.77-17.43-4.01-26.32-.1-4.39,0-12.43.39-16.81.09-.87,1.4-.84,1.41.07.26,8.53,1.42,20.83,3.54,29.08,1.6,6.09,3.73,11.96,7.02,17.24.68,1.06,1.4,2.09,2.17,3.06.01.02.03.03.04.05,4.71,4.1,7.98,9.75,8.26,17.44.01.36.02.73.02,1.11v.41c8.78.09,17.65.08,26.45,0v-.4c0-7.67,2.89-14.08,8.44-18.84.69-.9,1.36-1.83,1.98-2.82,3.28-5.28,5.41-11.15,7.01-17.24,1.07-4.11,1.87-8.31,2.46-12.56.58-4.24.98-12.23,1.09-16.52,0-.87,1.32-.97,1.41-.07,1,13.24.4,30.35-3.63,43.13-.02.06-.04.12-.06.18,8.41-3.17,16.93-3.44,19.58-3.44,13.72,0,36.52,5.44,38.48,25.39,9.15-.3,18.3-.76,27.38-1.84,1-.12,15.09-.89,13.41-14.41-.9-7.23-2-12.74-3.3-19.91-3.46-19.45-8.23-38.67-14.23-57.48-1.64-5.04-3.35-10.09-5.18-15.01-1.73,1.6-3.52,3.25-4.49,4.15l-11.17,10.32c-.79.71-1.94-.39-1.21-1.21,4.79-5.2,13.35-14.44,18.05-19.55.78-.82,1.59-1.77,2.21-2.72,3.73-5.58,3.58-13.11-.32-18.39-.89-1.33-2.64-2.83-4.03-4.07ZM600.01,571.05c-14.12,5.34-28.48,13.16-37.04,25.92-2.77,4.2-4.58,8.87-5.37,13.71-.35,1.37-1.75,2.2-3.12,1.84-1-.26-1.71-1.07-1.88-2.03-.47-2.63-1.21-5.21-2.25-7.69-7.01-15.52-23-24.69-38.31-30.71-2.67-1.01-5.4-1.95-8.12-2.7-.92-.25-.66-1.74.38-1.53,19.42,4.75,42.18,15.12,50.81,34.21,3.47-7.55,9.35-13.91,16.04-18.69,4.32-3.13,8.95-5.74,13.73-7.96,4.78-2.21,9.71-4.05,14.73-5.54.33-.1.67.09.77.42.09.31-.08.65-.38.76Z"/>
    <path class="cls-1" d="M533.57,656.51c-.25-.31-.51-.61-.78-.91-.06-.07-.13-.14-.2-.21-.26-.27-.52-.54-.8-.8-.07-.07-.15-.14-.22-.21-.29-.26-.59-.52-.89-.77-.07-.06-.14-.11-.21-.17-.35-.28-.72-.56-1.09-.83-.03-.02-.06-.05-.09-.07-.39-.28-.8-.55-1.22-.81-.24-.15-.49-.29-.74-.43-.74-.43-1.5-.85-2.32-1.24-8.47-4.02-18.05-4.33-20.79-4.33-2.03,0-13.53.24-22.42,5.24-2.96,1.67-5.62,3.86-7.56,6.76-1.95,2.92-3.16,6.54-3.16,11.05v7.31c0,5.68,4.62,10.3,10.3,10.3,1.67,0,2.96-1.46,2.76-3.12-.47-3.9-.75-10.95,1.85-18.28,1-2.83,2.12-5.1,3.52-7.17.05-.08.13-.09.16-.09.04,0,.08.01.11.03.1.07.1.19.06.27-1.93,4.42-2.83,9.72-2.58,14.97.19,3.71.92,7.38,2.19,10.9.08.22.18.47.28.74.42,1.05,1.44,1.74,2.58,1.74h6.7c1.41,0,2.6-1.06,2.76-2.47l2.32-20.58c.02-.2.17-.24.29-.24.17,0,.27.08.28.24l2.32,20.58c.16,1.41,1.35,2.47,2.76,2.47h6.68c1.16,0,2.2-.72,2.61-1.81,1.46-3.87,2.29-7.75,2.47-11.57.25-5.26-.65-10.55-2.56-14.91-.08-.15-.06-.2-.04-.23.04-.07.14-.13.21-.13.02,0,.07,0,.13.09,4.23,6.46,6.22,14.72,5.59,23.23-.05.68-.14,1.45-.24,2.18-.23,1.67,1.07,3.15,2.75,3.15h.03c5.67,0,10.3-4.64,10.3-10.3v-7.31c0-4.73-1.35-8.78-4.01-12.14-.04-.05-.08-.09-.11-.13Z"/>
    <path class="cls-1" d="M628.34,650.06c-8.47-4.02-18.05-4.33-20.79-4.33-2.03,0-13.53.24-22.42,5.24-2.96,1.67-5.62,3.86-7.56,6.76-1.95,2.92-3.16,6.54-3.16,11.05v7.31c0,5.68,4.62,10.3,10.3,10.3,1.67,0,2.96-1.46,2.76-3.12-.47-3.9-.75-10.95,1.85-18.28,1-2.83,2.12-5.1,3.52-7.17.05-.08.13-.09.16-.09.04,0,.08.01.11.03.1.07.1.19.06.27-1.93,4.42-2.83,9.72-2.58,14.97.19,3.71.92,7.38,2.19,10.9.08.22.18.47.28.74.42,1.05,1.44,1.74,2.58,1.74h6.7c1.41,0,2.6-1.06,2.76-2.47l2.32-20.58c.02-.2.17-.24.29-.24.17,0,.27.08.28.24l2.32,20.58c.16,1.41,1.35,2.47,2.76,2.47h6.68c1.16,0,2.2-.72,2.61-1.81,1.46-3.87,2.29-7.75,2.47-11.57.25-5.26-.65-10.55-2.56-14.91-.08-.15-.06-.2-.04-.23.04-.07.14-.13.21-.13.02,0,.07,0,.13.09,4.23,6.46,6.22,14.72,5.59,23.23-.05.68-.14,1.45-.24,2.18-.23,1.67,1.07,3.15,2.75,3.15h.03c5.67,0,10.3-4.64,10.3-10.3v-7.31c0-8.43-4.27-14.72-12.69-18.72Z"/>
  </g>
</svg>