<?xml version="1.0" encoding="UTF-8"?>
<svg id="Layer_1" data-name="Layer 1" xmlns="http://www.w3.org/2000/svg" viewBox="0 0 1080 1080">
  <defs>
    <style>
      .cls-1 {
        fill: #fff;
        stroke-width: 0px;
      }
    </style>
  </defs>
  <path class="cls-1" d="M339.4,92.39c-7.37,21.89-13.1,50.5-16.67,83.39-2.83,26.05-3.81,56.7-4.15,76.98h24.33c44.41-28.3,96.22-47.79,116.67-54.93-47.17-56.98-90.22-88.46-120.19-105.43Z"/>
  <path class="cls-1" d="M406.49,428.13c.62-.61,1.56-.75,2.32-.33,0,0,.02.01.03.02.87.48,1.25,1.55.86,2.48-1.09,2.58-2.33,5.09-2.94,7.82-1.55,6.91-4.89,13.54-6.13,20.53-.11.61.12,1.28.5,1.97,1.28,2.29,4.49,2.67,6.3.76.79-.84,1.36-1.66,1.34-2.47-.26-7.99,1.78-14.9,7-20.9,5.21-5.97,9.52-7.7,16.49-4.14,10.83,5.53,20.54,4.3,30.77-1.44,9.73-5.46,20.52-7.58,31.36-4.14,16.73,5.32,21.87,7.56,44.88.21,10.8,8.39,20.99,16.57,31.48,24.33,3.47,2.57,7.29,4.67,11.36,6.12,5.14,1.84,7.91,1.66,9.81-1.43,1.81-2.94.08-6.78-3.24-7.73-.92-.26-1.84-.54-2.75-.83-8.36-2.7-14.15-8.13-16.85-16.54-3.8-11.81,4.5-22.89,16.94-22.52,6.23.18,12.44,1.29,18.65,1.19,3.28-.05,6.55-.74,10.57-1.55,2.47-.49,3.74-3.34,2.37-5.45-1.84-2.83-4.2-4.05-5.94-5.88-7.22-7.62-13.88-15.79-21.12-23.39-2.08-2.18-3.98-4.08-5.34-5.8-.98-1.24-1.37-2.81-1.38-4.39,0-1.2-.23-2.43-.69-3.64-1.91-4.93-7.2-7.49-11.81-5.7-4.61,1.79-6.79,7.23-4.88,12.17.04.1.1.19.14.29-8.68-.28-16.98.97-24.31,3.5-11,3.79-18.54,4.95-27.86,3.15-13.02-2.52-17.61-13.72-46.34-14.1-19.88-.26-33.63,13.31-45.44,24.19-5.39,4.96-11.88,6.39-18.75,7.49-30.5,4.89-42.61,15.31-71.19,27.46-7.46,3.17-25.88,7.7-41.12,6.37-17.21-1.5-36.89-2.87-51.91-7.07.13.07,11.02,5.02,14.13,5.77,14.66,3.52,57.63,11.9,83.51.42,24.7-10.96,48.04-22.07,75.89-23.71.82,1.78,1.6,3.51,2.4,5.24,1.18,2.58.19,5.65-2.29,7.03-4.49,2.48-8.53,4.4-10.66,7.58-6.44,9.62-11.71,20.02-17.28,30.22-1.18,2.16-.12,4.88,2.22,5.64,3.4,1.1,4.93-.36,6.88-4.99,2.66-6.32,5.02-12.79,7.93-18.99.86-1.84,2.54-3.29,4.07-4.81Z"/>
  <path class="cls-1" d="M436.53,526.39c.77-.92,1.53-1.88,2.3-2.86,6.56-8.26,15.54-19.58,35.39-19.58s28.83,11.32,35.39,19.58c.77.97,1.53,1.93,2.3,2.86,9.11,10.95,24.07,22,36.92,22h93.8c57.86,0,104.94-47.08,104.94-104.94v-67.46c0-54.07-41.11-98.71-93.72-104.33-11.45-.55-22.52-.6-34.18-.61h-343.64c-57.86,0-104.94,47.08-104.94,104.94v67.46c0,57.86,47.07,104.94,104.94,104.94h123.57c12.85,0,27.8-11.05,36.92-22ZM180.24,443.44v-67.46c0-52.82,42.97-95.8,95.8-95.8h366.6c52.82,0,95.8,42.97,95.8,95.8v67.46c0,52.82-42.97,95.8-95.8,95.8h-93.8c-9.84,0-22.39-9.69-29.89-18.7-.65-.78-1.29-1.59-1.95-2.41l-.22-.28c-6.84-8.62-18.29-23.04-42.55-23.04s-35.71,14.42-42.55,23.04l-.22.28c-.65.82-1.3,1.64-1.95,2.42-7.5,9-20.05,18.7-29.89,18.7h-123.57c-52.82,0-95.8-42.97-95.8-95.8Z"/>
  <path class="cls-1" d="M310,174.39c4.08-37.55,10.96-69.88,19.91-93.5.65-1.72,2.01-3.07,3.73-3.72,1.72-.65,3.64-.53,5.26.34,32.26,17.15,82.13,51.78,136.48,119.41,1.32,1.64,1.75,3.83,1.14,5.85-.61,2.02-2.18,3.61-4.18,4.25-.62.2-54.44,17.53-104.5,45.72h248.61c1.34,0,2.68,0,4.02,0h22.17c4.38,0,8.71.24,12.98.69,30.29,1.56,64.4,6.65,117.36,23.32,25.88,8.15,46.84,17.67,63.45,28.83v-.02s36.77,22.12,36.77,22.12c0,0,0-.01,0-.02,5.83-39.35,6.2-70.35,6.2-70.69.04-1.63,3.02-147.75-40.18-214.44-20.02,7.17-88.43,36.92-165.71,129.69-.68.8-1.79,2.19-3.09,3.79-3.58,4.43-8.22,7.79-13.39,9.9-.21.48-.41.96-.63,1.44-6.04,13.2-13.46,25.71-20.92,38.11-2.89,4.7-5.83,9.34-8.8,13.95-1.17,1.81-3.58,2.34-5.39,1.17-1.48-.97-2.1-2.74-1.65-4.35,4.5-16.16,8.97-32.51,11.74-49.06-1.18-.13-2.35-.3-3.53-.42-10.79-1.19-21.69-2-32.59-2.45-3.05,4.08-8.73,9.17-15.04,24.13-2.91,6.89-5.14,14.32-6.75,21.72-.51,2.52-.93,5.06-1.41,7.64-.29,2.21-2.38,3.79-4.59,3.36-1.72-.33-2.94-1.72-3.15-3.36-.33-2.71-.69-5.45-.97-8.19-1.32-15.29-.44-30.92,4.04-45.75,0,0,0,0,0,0-.44,0-.89,0-1.32,0-13.92.15-26.06.69-37.74,1.7-.8.84-1.43,1.88-2.08,2.93-6.93,11.9-7.31,26.97-5.81,40.5l1.17,7.52c.49,2.18-.97,4.37-3.2,4.72-1.7.26-3.33-.64-4.08-2.12l-3.62-7.3c-3.36-7.59-6.25-15.78-7.7-24.03-1.3-7.46-1.79-15.58-.66-23.39-5.18-2.07-9.84-5.43-13.51-9.93-2.34-2.87-4.64-5.67-6.09-7.35-75.8-89.11-141.77-117.64-161.4-124.58-37.3,57.77-40.23,177.6-40.3,210.22h0s24.72,0,24.72,0c.34-20.54,1.34-51.75,4.23-78.36ZM685.21,196.92c54.38-67.66,104.27-102.3,136.55-119.45,1.62-.86,3.53-.99,5.25-.34,1.72.64,3.08,1.99,3.73,3.71,7.01,18.31,16.14,49.08,19.82,91.64,5.24,60.52,5.03,69.8,4.13,108.87l-.06,2.42c-.06,2.48-1.54,4.71-3.81,5.71-.83.37-1.71.54-2.58.54-1.52,0-3.02-.54-4.21-1.57-64.9-56.53-154.59-81.09-155.49-81.33-2.09-.56-3.75-2.14-4.42-4.19-.67-2.06-.26-4.31,1.09-6Z"/>
  <path class="cls-1" d="M231.9,883.09c-3.91-.85-7.74-1.75-11.51-2.73-17.65-4.68-37.93-11.18-54.56-23.95-34.68-26.6-32.76-60.22-31.35-69.89,1.46-9.99,4.63-19.79,9.7-29.95l1.42-2.75.74-1.37c4.84-8.82,6.91-19.07,5.82-28.88-2.14-24.23-23.82-43.91-48.33-43.91-1.73,0-3.46.1-5.17.3-19.64,2.06-34.22,13.88-43.36,35.15-19.81,40.75-24.87,84.78-14.28,124.06,6.09,20.57,16.5,40.78,30.93,60.03,17.29,23.48,39.72,41.76,66.68,54.33,23.59,11.26,50.12,19.97,80.27,26.34,2.9.61,5.75-1.3,6.31-4.21l8.09-42.03c.34-1.9.69-3.81,1.03-5.71,1.99-10.33,4.15-20.63,6.49-30.9,1.44-6.31-2.59-12.56-8.91-13.93Z"/>
  <path class="cls-1" d="M710.75,546.06h76.3c40.44,0,73.34-39.72,73.34-80.16v-65.48c0-47.23-28.61-82.84-95.65-103.95-14.24-4.48-26.96-8.07-38.56-10.96,24.38,22.53,39.68,54.74,39.68,90.47v67.46c0,42.78-21.92,80.52-55.11,102.62Z"/>
  <path class="cls-1" d="M837.8,173.58c-3.13-36.1-10.26-63.29-16.51-81.26-29.94,16.93-72.94,48.34-120.06,105.2,23.7,7.43,87.38,30.04,140.89,72.68.63-30.02.33-42.84-4.33-96.63Z"/>
  <path class="cls-1" d="M488,707.48c63.43,6.47,128.08,6.09,191.29-2.06,59.25-8.28,122.92-26.02,161.95-74.3,1.51-1.91,2.97-3.87,4.4-5.86-18.71.56-38.09,1.14-56.65.13-23.31-1.06-46.5-3.73-69.44-7.68-2.26-.39-2.01-3.85.39-3.78,22.95.63,45.91,0,68.71-2.23,11.95-1.07,23.67-2.77,35.38-4.7,7.62-1.25,22.92-6.05,32.57-10.66,2.07-.99,1.07-4.1-1.19-3.69-24.69,4.44-49.49,5.78-74.5,6.11-31.04.33-61.87-1.5-92.72-4.32-2.3-.21-2.32-3.73.12-3.8,45.59-1.69,91.61-5.33,136.1-15.34,6.67-1.54,16.78-4.07,24.36-5.99,1.52-.39,1.24-2.63-.33-2.63h-299.59c-20.04,0-39.47-14.76-50.97-28.58-.86-1.03-1.71-2.1-2.57-3.19-5.61-7.07-10.05-12.66-21.07-12.66s-15.45,5.59-21.07,12.66c-.86,1.09-1.71,2.16-2.57,3.19-11.5,13.82-30.93,28.58-50.97,28.58h-87.79c9.44,2.38,18.94,4.57,28.38,6.6,9.48,2.02,19.01,3.86,28.58,5.44,9.57,1.57,19.19,2.9,28.87,3.69,2.48.2,2.56,3.92.01,4.16-9.84.83-19.72,1.11-29.59,1.14-23.19-.05-46.19-1.17-69.22-3.42-1.94-.19-2.74,2.42-1.01,3.32,7.44,3.85,16.36,7.64,25.19,9.19,24.6,4.31,49.69,6.53,74.51,7.04,2.7.03,2.99,4.08.25,4.42-28.34,3.28-56.95,3.46-85.46,2.03-4.38-.25-8.74-.55-13.14-.93,40.85,66.67,113.01,89.46,188.81,98.13ZM341.12,631.67c.84-1.07,2.37-1.29,3.48-.51,10.58,7.45,22.59,12.81,35.13,14.81,33.04,5.54,63.35-13.01,83.67-38.14,1.81-2.24,1.64-5.49-.4-7.53l-5.9-4.76c-4.47-3.6-8.41-7.81-11.7-12.51l-.79-1.13c-4.53-7.73-1.69-15.24,7.11-17.15,0,0,8.4-1.83,23.27-1.83s22.76,1.83,22.76,1.83c9.12,1.92,12.69,8.98,7.11,17.15l-.79,1.12c-3.44,4.86-7.57,9.19-12.26,12.86l-4.23,3.31c-2.15,2.15-2.2,5.63-.12,7.85,28.15,29.99,68.99,49.18,110.49,42.81,15.58-2.25,30.67-7.89,44.29-16.1,1.13-.68,2.63-.62,3.58.3,1.4,1.36,1.1,3.53-.4,4.51-27.92,18.67-63.7,25.39-96.49,17.2-26.3-6.23-49.98-20.65-69.23-39.48-2.28-2.23-5.93-2.1-8.07.26-34.03,37.58-85.58,53.58-130.06,18.69-1.11-.86-1.31-2.46-.44-3.57Z"/>
  <path class="cls-1" d="M912.85,477.57v-91.53c0-8.52-4.54-16.58-12.13-20.46-.22-.11-.44-.23-.65-.36l-22.53-13.56c6.83,14.55,10.28,30.85,10.28,48.76v65.48c0,32.65-15.62,61.7-39.76,80.13,36.11-1.96,64.79-31.86,64.79-68.45Z"/>
  <path class="cls-1" d="M1068.8,610.35s-11.01-4.58-11.01-4.58c-9.59-3.9-19.22-7.53-28.85-10.87,2.54-2.22,4.48-5.17,5.5-8.63,2.74-9.29-2.3-19.1-11.56-22.34l-8.31-2.82c-30.28-9.99-60.28-15.7-89.38-17.03,14.55-18.12,22.4-40.41,22.4-64.28v-93.78c0-21.2-11.53-40.68-30.1-50.89l-9.44-5.68c5.53-38.69,6.04-68.46,6.08-71.75.17-6.81,3.59-167.56-50.63-241.15-4.81-6.53-12.5-10.43-20.56-10.43-2.12,0-4.24.27-6.29.79-2.52.63-25.62,6.78-60.45,27.88-44.74,27.1-88.25,65.84-129.28,115.09-.68.81-1.78,2.15-3.09,3.77-3.66-.48-7.51-.94-11.74-1.41-12.3-1.35-24.83-2.27-37.27-2.74-.52-.12-1.06-.18-1.6-.18h-2.12c-4.23-.14-8.56-.22-13.22-.24h-1.6c-.78-.02-1.56-.02-2.34-.02-18.47,0-33.86.59-48.43,1.86-3.47.3-6.89.64-10.19,1-2.37-2.9-4.64-5.65-6.08-7.34-40.48-47.59-83.29-84.99-127.26-111.18-33.62-20.02-55.61-25.89-58-26.49-2.07-.53-4.2-.79-6.33-.79-8.06,0-15.75,3.9-20.55,10.42-42.71,57.96-49.8,170.95-50.7,222.9-64.12,13.77-110.03,70.23-110.03,136.51v67.46c0,51.7,28.69,98.64,73.26,122.81-6,1.6-12.26,3.43-18.85,5.51-2.55.84-5.08,1.72-7.6,2.6l-3.93,1.36c-8.77,3.05-13.81,12.16-11.74,21.14.19.82.43,1.63.72,2.41-11.12,4.15-22.07,8.89-32.65,14.11-8.51,4.12-12.46,14.22-9,22.95,1.79,4.57,5.41,8.27,9.96,10.16,2.21.91,4.55,1.38,6.95,1.38s4.77-.47,6.92-1.37c9.34-3.8,18.87-7.16,28.46-10.03-2.98,4.88-3.51,11.06-.98,16.76,2.91,6.56,9.43,10.8,16.6,10.8,2.19,0,4.35-.39,6.43-1.18l6.37-2.45c2.46-.94,4.17-1.61,5.41-2.11.1-.03.2-.07.3-.1,14.53-5.15,26.31-8.71,36.08-10.87,14.16-3.26,25.64-4.79,36.11-4.81,3.45,4.2,7.05,8.27,10.75,12.17-12.23,18.98-14.87,42.52-6.98,63.51-21.4,38.94-38.6,81.43-52.45,129.6-16.57-3.63-37.3-9.66-50.73-20.89-7.14-6.74-12.87-15.2-16.2-23.9-1.75-8.86,1.66-22.97,8.44-34.65l.18-.33c18.64-34.45,9.18-80.48-21.4-104.68-14.65-12.19-33.52-18.91-53.14-18.91-25.87,0-49.68,11.13-65.23,30.44-6.79,8.11-11.16,17.01-15.04,24.9C-.15,748.17-6.01,801.02,6.92,848.7l.08.29c9.78,32.79,28.16,64.28,53.12,91.05,28.37,30.64,69.7,53.69,119.53,66.68,57.15,14.89,126.88,19.01,160.06,20.15,3.89,26.41,27.08,46.99,54.32,46.99h114.56c23.42,0,44.38-15.35,51.92-37.25,6.4.04,12.46.06,18.31.06,6.53,0,13.34-.02,20.58-.07,7.53,21.91,28.5,37.26,51.96,37.26h114.56c27.54,0,50.2-19.9,54.26-46.4,20.16-1.04,54.17-2.96,63.11-4,10.45-1.21,17.86-2.96,25.53-6.05,24.78-9.23,40.83-37.82,37.37-66.44-2.88-27.37-6.2-51.33-10.17-73.29-12.31-65.7-28.83-121.55-50.45-170.57,11.67-21.39,11.46-48.04-.8-69.03-.55-1.02-1.15-2.02-1.78-3,.92-.02,1.87-.03,2.84-.03,3.1,0,6.41.09,10.05.26,15.72.92,32.07,3.74,48.69,8.4,13.96,3.74,29.14,9.32,47.88,17.61l.36.15c2.23.91,4.56,1.36,6.93,1.36,7.07,0,13.33-4.03,16.35-10.52,3.84-8.28.93-18.01-6.66-22.94,12.13,3.24,23.89,6.88,35.17,10.87.64.23,11.29,3.99,11.29,3.99,1.87.62,3.81.94,5.77.94h0c7.47,0,14.27-4.7,16.92-11.69,3.47-9.15-.84-19.32-9.8-23.15ZM1061.11,628.64s-10.91-3.86-10.95-3.87c-25.32-8.97-51.47-15.71-77.85-20.61-29.86-5.39-60.58-8.69-90.84-7.9-.73.03-1.38-.06-2-.2-1.74,3.62-3.53,7.17-5.41,10.59,37.69-.56,77.1,12.54,110.34,28.28,5.39,2.68,10.71,5.5,16.05,8.23,1.84.97.61,3.89-1.43,3.07-16.23-7.19-33.03-13.82-50.18-18.41-16.85-4.73-34.6-7.92-51.99-8.93-10.05-.48-20.32-.5-30.25,1.06-.56.68-1.14,1.3-1.73,1.85-2.1,3.14-4.26,6.21-6.51,9.17,4.08,4.58,9.32,9.99,12.08,15.19,11.15,18.84,9.23,42.78-3.52,59.59,25.56,55.55,41.71,115.01,52.94,174.97,4.29,23.74,7.45,48.02,9.98,71.98,2.45,20.32-8.45,42.61-26.94,49.37-6.71,2.73-13.13,4.09-21.48,5.05-9.67,1.12-57.68,3.78-77.03,4.64v7.19c0,21.19-17.26,38.46-38.46,38.46h-114.56c-20.85,0-37.87-16.68-38.42-37.38h0c-11.34.11-22.73.19-34.12.19-10.64,0-21.26-.06-31.83-.17-.59,20.68-17.58,37.36-38.4,37.36h-114.56c-20.85,0-37.87-16.68-38.42-37.38-.04-.35-.04-.71-.04-1.08v-8.13c-26.49-.37-107.51-3.27-171.77-20.01-49.49-12.9-86.69-35.03-111.6-61.93-23.27-24.96-40.37-54.2-49.43-84.57-11.86-43.75-6.38-92.51,15.42-137.34,3.61-7.35,7.34-14.95,12.86-21.54,12.56-15.59,31.74-24.54,52.61-24.54,15.82,0,30.99,5.39,42.7,15.18,24.7,19.47,32.35,56.44,17.37,84.12-9.23,15.9-13.13,34.51-9.97,47.5,4.18,11.56,11.66,22.75,21.07,31.52,18.14,15.4,45.49,22.68,73.46,27.69,13.73-51.42,32.61-101.43,59.08-147.88-11.34-21.02-7.52-48.06,10.8-65.56-8.98-8.19-17.21-17.2-24.75-27.03-1.21-.11-2.52-.2-3.29-.26-15.09-.59-29.99,1.74-44.73,5.13-12.37,2.74-25.86,7.13-37.89,11.4,0,0-12.42,4.78-12.44,4.79-1.94.74-3.29-2.11-1.36-3.1,15.6-7.92,32.81-15.74,49.42-21.16,13.33-4.29,27.22-8.17,41.31-9.4-1.58-2.38-3.13-4.8-4.64-7.26-27.9-.62-59.18,2.88-86.29,9-16.84,3.93-33.29,9.2-49.33,15.73-.87.38-1.91-.04-2.25-.93-.33-.83.05-1.77.84-2.15,15.73-7.77,32.1-14.33,48.88-19.54,25.31-7.64,53.85-12.99,80.8-14.92-1.42-2.63-2.79-5.31-4.14-8.03-23.76-1.78-47.85,1.44-71.15,6.16,0,0-11.5,2.64-11.5,2.64-.92.25-1.88-.32-2.09-1.26-.2-.85.29-1.7,1.1-1.98,3.76-1.29,7.5-2.63,11.28-3.88,21.54-6.78,43.85-12.27,66.48-13.7-1.29-2.75-2.56-5.51-3.8-8.27-59.72-8.5-105.79-59.94-105.79-121.97v-67.46c0-63.45,48.21-115.84,109.92-122.5v-.02c-.07-34.29,2.69-166.19,47.6-227.13,2.19-2.98,5.98-4.35,9.58-3.44,3.35.84,82.78,21.87,176.77,132.37,1.5,1.76,3.88,4.64,6.31,7.63,1.65,2.01,3.71,3.53,6.02,4.46,2.29.93,4.81,1.3,7.37,1.02,3.51-.38,7-.73,10.55-1.04,14.32-1.24,29.24-1.79,47-1.79.84,0,1.7,0,2.54.02.43,0,.87.01,1.3.01,0,0,.02-.01.02-.01,4.33.02,8.67.09,13.02.24h.02s.06.04.08.05c13.17.41,26.32,1.33,39.37,2.76,4,.44,7.99.91,11.96,1.44,4.92.66,9.71-1.02,13.07-4.53.31-.31.6-.64.88-.99,1.37-1.7,2.56-3.16,3.27-4,95.88-115.08,177.74-136.78,181.18-137.64,3.6-.91,7.41.46,9.6,3.44,50.76,68.88,47.6,224.39,47.43,230.97-.02,1.41-.42,36.5-7.55,80.59,0,0,0,0,0,0l19.18,11.54c13.47,7.28,21.83,21.28,21.83,36.6v93.78c0,28.05-13.37,53.02-34.07,68.91-1.18,4.15-2.4,8.21-3.68,12.17,39.18-2.74,78.87,3.58,116.03,15.85,0,0,8.2,2.78,8.2,2.78,1.97.69,1.17,3.76-.96,3.24-5.06-1.24-11.67-3.17-16.66-4.21-16.61-3.77-33.56-6.18-50.53-7.24-20.28-1.17-40.67-.58-60.67,2.79-1.14,3.05-2.32,6.05-3.53,8.98,57.17,2.57,113.47,16.42,166.33,37.93,0,0,10.74,4.46,10.74,4.46,1.92.82.91,3.86-1.21,3.16Z"/>
  <path class="cls-1" d="M846.66,644.83c-28.32,30.26-66.62,49.35-118.23,61.29-47.36,10.79-96.27,13.76-144.63,14.22-64.56.25-130.48-2.71-192.05-23.98-22.44-7.73-42.15-18.16-59.44-31.19-1.13,1.12-2.41,2.32-3.45,3.38-14.35,13.6-15.98,37.03-3.83,52.68,3.07,3.92,8.59,9.7,11.93,13.53,6.16,6.89,18.45,20.94,24.48,27.95,4.01,4.73,8.04,9.43,11.98,14.24,1.15,1.36-.76,3.4-2.19,2.19-15.13-12.52-31.58-26.96-46.62-40.44-13.03,25.17-24.07,51.51-33.78,78.38-13.43,37.68-24.04,76.41-32.25,115.57-1.38,6.79-2.71,13.63-3.82,20.44-1.52,7.84-.17,16.16,4.26,23.03,4.76,7.29,12.87,11.96,21.63,12.47l3.03.33c4.03.45,25.79,2.83,30.26,3.33,13.92,1.4,27.84,2.8,41.78,4,1.05-17.13,8.13-31.52,20.86-42.45,4.97-4.3,10.79-8.05,17.45-11.25,2.67-1.28,5.38-2.43,8.1-3.44,20.94-7.9,42.17-8.58,48.75-8.58,14.34,0,32.67,2.39,49.47,8.83-.09-.24-.16-.45-.24-.69-6.89-21.32-9.4-43.39-9.99-65.54-.24-10.94,0-30.94.97-41.86.22-2.16,3.49-2.08,3.51.16.64,21.25,3.55,51.88,8.81,72.41,3.99,15.16,9.29,29.77,17.48,42.92,1.68,2.65,3.47,5.21,5.39,7.63.03.04.07.09.11.13,11.73,10.21,19.87,24.28,20.58,43.43.04.9.05,1.83.05,2.76v1.02c21.87.21,43.95.21,65.86-.02v-1c0-19.11,7.19-35.06,21.01-46.92,1.72-2.23,3.38-4.55,4.92-7.02,8.17-13.15,13.48-27.76,17.46-42.92,2.67-10.22,4.64-20.7,6.13-31.29,1.44-10.57,2.43-30.47,2.71-41.13,0-2.16,3.29-2.41,3.51-.16,2.49,32.97.99,75.58-9.03,107.4-.06.15-.09.29-.15.44,20.94-7.9,42.17-8.58,48.75-8.58,34.16,0,90.95,13.53,95.81,63.22,22.78-.76,45.56-1.89,68.19-4.58,2.5-.3,37.57-2.21,33.4-35.88-2.23-18-4.98-31.73-8.23-49.58-8.62-48.43-20.5-96.29-35.43-143.14-4.07-12.55-8.33-25.12-12.9-37.37-4.31,3.98-8.75,8.08-11.18,10.32l-27.81,25.69c-1.97,1.77-4.84-.97-3.02-3.02,11.92-12.96,33.25-35.97,44.95-48.68,1.94-2.05,3.97-4.42,5.49-6.78,9.29-13.9,8.91-32.65-.81-45.8-2.21-3.32-6.58-7.05-10.03-10.13ZM689.43,757.38c-35.17,13.3-70.91,32.78-92.23,64.54-6.89,10.46-11.4,22.1-13.38,34.13-.88,3.41-4.35,5.47-7.76,4.59-2.49-.64-4.26-2.68-4.69-5.05-1.17-6.54-3.03-12.96-5.6-19.16-17.45-38.64-57.27-61.49-95.38-76.48-6.64-2.52-13.43-4.87-20.22-6.74-2.29-.63-1.65-4.33.95-3.81,48.36,11.82,105.04,37.65,126.53,85.19,8.65-18.8,23.29-34.63,39.95-46.53,10.76-7.81,22.29-14.29,34.19-19.81,11.91-5.51,24.18-10.08,36.69-13.81.81-.24,1.67.22,1.91,1.04.23.78-.19,1.61-.95,1.89Z"/>
  <path class="cls-1" d="M523.98,970.17c-.62-.77-1.27-1.52-1.95-2.26-.16-.18-.33-.35-.49-.52-.64-.68-1.3-1.34-1.99-1.99-.18-.17-.37-.35-.55-.52-.72-.66-1.46-1.3-2.22-1.93-.17-.14-.34-.29-.51-.43-.88-.7-1.78-1.39-2.72-2.06-.08-.06-.15-.11-.23-.17-.98-.69-2-1.36-3.04-2.01-.59-.37-1.22-.72-1.83-1.08-1.84-1.07-3.75-2.11-5.78-3.08-21.1-10-44.95-10.77-51.77-10.77-5.07,0-33.7.59-55.83,13.04-7.37,4.15-14.01,9.62-18.82,16.82-4.86,7.26-7.86,16.29-7.86,27.52v18.21c0,14.14,11.5,25.66,25.66,25.66,4.16,0,7.37-3.63,6.86-7.76-1.18-9.71-1.87-27.27,4.61-45.52,2.5-7.04,5.29-12.71,8.77-17.86.13-.19.33-.21.41-.21.1,0,.19.03.27.08.25.16.26.46.15.66-4.79,11.01-7.05,24.2-6.42,37.28.46,9.24,2.3,18.38,5.46,27.14.19.54.44,1.18.71,1.84,1.05,2.62,3.6,4.34,6.42,4.34h16.68c3.52,0,6.48-2.64,6.87-6.14l5.77-51.26c.06-.5.42-.61.72-.61.42,0,.66.2.71.61l5.77,51.26c.39,3.5,3.35,6.14,6.87,6.14h16.64c2.89,0,5.47-1.8,6.5-4.5,3.64-9.63,5.71-19.3,6.15-28.82.63-13.09-1.63-26.28-6.37-37.13-.2-.38-.15-.49-.1-.58.11-.18.34-.32.53-.32.06,0,.17,0,.33.23,10.54,16.09,15.49,36.65,13.91,57.86-.13,1.69-.35,3.6-.6,5.43-.57,4.15,2.67,7.83,6.85,7.83h.09c14.11,0,25.66-11.55,25.66-25.66v-18.21c0-11.77-3.35-21.87-9.99-30.23-.09-.11-.19-.22-.28-.33Z"/>
  <path class="cls-1" d="M759.99,954.12c-21.1-10-44.95-10.77-51.77-10.77-5.07,0-33.7.59-55.83,13.04-7.37,4.15-14.01,9.62-18.82,16.82-4.86,7.26-7.86,16.29-7.86,27.52v18.21c0,14.14,11.5,25.66,25.66,25.66,4.16,0,7.37-3.63,6.86-7.76-1.18-9.71-1.87-27.27,4.61-45.52,2.5-7.04,5.29-12.71,8.77-17.86.13-.19.33-.21.41-.21.1,0,.19.03.27.08.25.16.26.46.15.66-4.79,11.01-7.05,24.2-6.42,37.28.46,9.24,2.3,18.38,5.46,27.14.19.54.44,1.18.71,1.84,1.05,2.62,3.6,4.34,6.42,4.34h16.68c3.52,0,6.48-2.64,6.87-6.14l5.77-51.26c.06-.5.42-.61.72-.61.42,0,.66.2.71.61l5.77,51.26c.39,3.5,3.35,6.14,6.87,6.14h16.64c2.89,0,5.47-1.8,6.5-4.5,3.64-9.63,5.71-19.3,6.15-28.82.63-13.09-1.63-26.28-6.37-37.13-.2-.38-.15-.49-.1-.58.11-.18.34-.32.53-.32.06,0,.17,0,.33.23,10.54,16.09,15.49,36.65,13.91,57.86-.13,1.69-.35,3.6-.6,5.43-.57,4.15,2.67,7.83,6.85,7.83h.09c14.11,0,25.66-11.55,25.66-25.66v-18.21c0-20.99-10.64-36.66-31.6-46.61Z"/>
</svg>