<svg width="30" height="30" viewBox="0 0 30 30" fill="none" xmlns="http://www.w3.org/2000/svg">
<path d="M29.9624 8.03519V21.9654C29.9624 23.103 29.039 24.0264 27.9014 24.0264H2.0984C0.961403 24.0264 0.0380039 23.103 0.0380039 21.966V8.03579C0.0380039 6.89819 0.961405 5.97479 2.099 5.97479L27.9014 5.97479C29.039 5.97479 29.9624 6.89819 29.9624 8.03579V8.03519Z" fill="white"/>
<mask id="mask0_90_400" style="mask-type:luminance" maskUnits="userSpaceOnUse" x="0" y="6" width="30" height="18">
<path d="M27.9182 6.68881H2.08223C1.32273 6.68881 0.707031 7.30451 0.707031 8.06401V21.9894C0.707031 22.7489 1.32273 23.3646 2.08223 23.3646H27.9182C28.6777 23.3646 29.2934 22.7489 29.2934 21.9894V8.06401C29.2934 7.30451 28.6777 6.68881 27.9182 6.68881Z" fill="white"/>
</mask>
<g mask="url(#mask0_90_400)">
<path fill-rule="evenodd" clip-rule="evenodd" d="M0.706055 15.0258H29.2949V6.68881H0.706055V15.0258Z" fill="white"/>
<path fill-rule="evenodd" clip-rule="evenodd" d="M0.706055 23.3646H29.2949V15.0258H0.706055V23.3646Z" fill="#D51F35"/>
</g>
</svg>
