<svg width="30" height="30" viewBox="0 0 30 30" fill="none" xmlns="http://www.w3.org/2000/svg">
<g clip-path="url(#clip0_58_152)">
<path d="M29.9624 8.0358V21.9834C29.9624 23.1222 29.0378 24.0468 27.899 24.0468H2.063C0.924202 24.0468 -0.000396729 23.1222 -0.000396729 21.9834V8.0352C-0.000396729 6.8964 0.924202 5.9718 2.063 5.9718L27.899 5.9718C29.0378 5.973 29.9624 6.897 29.9624 8.0358Z" fill="#FCFEFF"/>
<mask id="mask0_58_152" style="mask-type:luminance" maskUnits="userSpaceOnUse" x="0" y="6" width="30" height="18">
<path d="M27.9034 6.6618H2.06859C1.3061 6.6618 0.687988 7.27992 0.687988 8.0424V21.9786C0.687988 22.7411 1.3061 23.3592 2.06859 23.3592H27.9034C28.6659 23.3592 29.284 22.7411 29.284 21.9786V8.0424C29.284 7.27992 28.6659 6.6618 27.9034 6.6618Z" fill="white"/>
</mask>
<g mask="url(#mask0_58_152)">
<path d="M29.2738 6.0654V23.9826L29.2714 23.9868H0.687988V6.0654H29.2738Z" fill="#2E4693"/>
<path d="M29.2738 22.1184V23.9826L29.2714 23.9868H26.2978L17.5234 18.4854L16.6432 17.9358L15.6076 17.2836L15.2614 17.064L14.2066 16.4058L13.8142 16.1592L13.4836 15.9528L12.8194 15.5394L12.6064 15.4032L12.2824 15.2028L9.16659 13.245L7.76679 12.3666L0.687988 7.93141V6.06541L0.713788 6.02881L0.768988 6.06541H3.66399L12.6064 11.6682L13.4836 12.2214L13.7188 12.3666L15.1204 13.245L15.2614 13.3338L15.7996 13.6704L16.6432 14.2026L16.7878 14.2938L17.5234 14.7528L18.2392 15.2028L20.1634 16.4058L21.5644 17.2836L29.2738 22.1184Z" fill="#FCFEFF"/>
<path d="M29.2774 23.9322L29.284 23.997L27.3706 23.9868L17.5234 17.8134L16.6828 17.2836L16.6432 17.2614L15.7996 16.7298L15.2848 16.4058L14.35 15.8202L13.4836 15.2796L13.36 15.2028L12.8194 14.8614L12.6064 14.7264L10.2424 13.245L8.84439 12.3666L0.687988 7.25221V6.02341L0.713788 6.02881L0.768988 6.06541L10.8244 12.3666L12.223 13.245L12.6064 13.4844L13.4836 14.0382L13.8142 14.2428L14.35 14.5806L15.3424 15.2028L16.6432 16.0176L16.7878 16.1094L17.2654 16.4058L17.5234 16.5702L18.664 17.2836L29.2774 23.9322Z" fill="#E52F2E"/>
<path d="M29.2738 6.4182V8.2836L22.7554 12.3666L21.3568 13.245L18.2392 15.2028L17.5234 15.6474L16.7878 16.1094L16.6432 16.2L16.3138 16.4058L15.7996 16.7298L15.2614 17.064L14.9128 17.2836L13.4836 18.1818L12.6064 18.7326L4.22139 23.9868H0.687988V22.4688L8.95839 17.2836L10.3564 16.4058L12.2824 15.2028L12.6064 14.9982L12.8194 14.8614L13.4836 14.4462L13.8142 14.2428L15.2614 13.3338L15.4018 13.245L16.6432 12.4662L16.8022 12.3666L17.5234 11.9148L26.8582 6.0654H29.05L29.2738 6.4182Z" fill="#FCFEFF"/>
<path d="M29.2012 6.5106L19.8586 12.3666L18.4576 13.245L17.5234 13.8324L16.7878 14.2938L16.6432 14.3838L15.3424 15.2028L14.35 15.8202L13.8142 16.1592L13.4836 16.3632L13.4182 16.4058L12.6064 16.917L12.0148 17.2836L1.33299 23.9868H0.687988V23.148L10.0336 17.2836L11.4346 16.4058L12.6064 15.6726L12.8194 15.5394L13.36 15.2028L13.4836 15.1212L14.35 14.5806L15.7996 13.6704L16.4758 13.245L16.6432 13.14L17.5234 12.588L17.8774 12.3666L27.9298 6.0654H28.9234H29.2738L29.2774 6.4572L29.2012 6.5106Z" fill="#E52F2E"/>
<path d="M29.2892 12.3666H0.665039V17.2836H29.2892V12.3666Z" fill="white"/>
<path d="M29.2892 13.245H0.665039V16.4058H29.2892V13.245Z" fill="#E52F2E"/>
<path d="M16.643 6.0654H13.4834V23.9868H16.643V6.0654Z" fill="#CC132C"/>
<path d="M16.6363 17.2836H17.5165V23.9868H12.5977V17.2836H13.4749V12.3666H12.5977V6.0654H17.5165V12.3666H16.6363V17.2836Z" fill="white"/>
<path d="M16.6544 6.0654H13.46V23.9868H16.6544V6.0654Z" fill="#E52F2E"/>
</g>
</g>
<defs>
<clipPath id="clip0_58_152">
<rect width="30" height="30" fill="white"/>
</clipPath>
</defs>
</svg>
