<svg width="30" height="30" viewBox="0 0 30 30" fill="none" xmlns="http://www.w3.org/2000/svg">
<path d="M29.9624 8.03519V21.9654C29.9624 23.103 29.039 24.0264 27.9014 24.0264H2.0984C0.961403 24.0264 0.0380039 23.103 0.0380039 21.966V8.03579C0.0380039 6.89819 0.961405 5.97479 2.099 5.97479L27.9014 5.97479C29.039 5.97479 29.9624 6.89819 29.9624 8.03579V8.03519Z" fill="white"/>
<mask id="mask0_90_409" style="mask-type:luminance" maskUnits="userSpaceOnUse" x="0" y="6" width="30" height="18">
<path d="M27.9182 6.6618H2.08223C1.32273 6.6618 0.707031 7.2775 0.707031 8.037V21.9624C0.707031 22.7219 1.32273 23.3376 2.08223 23.3376H27.9182C28.6777 23.3376 29.2934 22.7219 29.2934 21.9624V8.037C29.2934 7.2775 28.6777 6.6618 27.9182 6.6618Z" fill="white"/>
</mask>
<g mask="url(#mask0_90_409)">
<path fill-rule="evenodd" clip-rule="evenodd" d="M0.706055 12.2202H29.2949V6.6618H0.706055V12.2202Z" fill="#F3F2F3"/>
<path fill-rule="evenodd" clip-rule="evenodd" d="M0.706055 17.7798H29.2949V12.2202H0.706055V17.7798Z" fill="#344192"/>
<path fill-rule="evenodd" clip-rule="evenodd" d="M0.706055 23.3382H29.2949V17.7798H0.706055V23.3382Z" fill="#D52027"/>
</g>
</svg>
