<svg width="30" height="30" viewBox="0 0 30 30" fill="none" xmlns="http://www.w3.org/2000/svg">
<path d="M30 8.01719V21.9828C30 23.1228 29.0742 24.0486 27.9342 24.0486H2.0658C0.9258 24.0486 0 23.1228 0 21.9828V8.01719C0 6.87719 0.9258 5.95139 2.0658 5.95139L27.9342 5.95139C29.0742 5.95139 30 6.87719 30 8.01719Z" fill="white"/>
<mask id="mask0_90_683" style="mask-type:luminance" maskUnits="userSpaceOnUse" x="0" y="6" width="30" height="18">
<path d="M27.9505 6.64081H2.0497C1.28821 6.64081 0.670898 7.25812 0.670898 8.01961V21.9798C0.670898 22.7413 1.28821 23.3586 2.0497 23.3586H27.9505C28.712 23.3586 29.3293 22.7413 29.3293 21.9798V8.01961C29.3293 7.25812 28.712 6.64081 27.9505 6.64081Z" fill="white"/>
</mask>
<g mask="url(#mask0_90_683)">
<path fill-rule="evenodd" clip-rule="evenodd" d="M0.670898 23.3592H29.3293V6.64081H0.670898V23.3592Z" fill="#4254A0"/>
<path fill-rule="evenodd" clip-rule="evenodd" d="M0.670898 23.3592H29.3293V15.0012H0.670898V23.3592Z" fill="#F1DC33"/>
</g>
</svg>
